<svg xmlns="http://www.w3.org/2000/svg" xmlns:xlink="http://www.w3.org/1999/xlink" width="500" zoomAndPan="magnify" viewBox="0 0 375 374.999991" height="500" preserveAspectRatio="xMidYMid meet" version="1.0"><defs><clipPath id="32cfcfc475"><path d="M 56 4 L 340.628906 4 L 340.628906 370.558594 L 56 370.558594 Z M 56 4 " clip-rule="nonzero"/></clipPath><clipPath id="4d663aa40c"><path d="M 39 13 L 249.726562 13 L 249.726562 237 L 39 237 Z M 39 13 " clip-rule="nonzero"/></clipPath></defs><g clip-path="url(#32cfcfc475)"><path fill="#0000ff" d="M 311.21875 360.71875 L 298.816406 360.71875 L 298.816406 276.753906 C 298.816406 276.414062 298.785156 276.078125 298.71875 275.746094 C 298.652344 275.414062 298.554688 275.089844 298.421875 274.777344 C 298.292969 274.464844 298.132812 274.164062 297.945312 273.882812 C 297.757812 273.601562 297.542969 273.339844 297.304688 273.101562 C 297.0625 272.859375 296.800781 272.644531 296.519531 272.457031 C 296.238281 272.269531 295.941406 272.109375 295.625 271.980469 C 295.3125 271.851562 294.988281 271.753906 294.65625 271.6875 C 294.324219 271.621094 293.988281 271.585938 293.648438 271.585938 L 257.597656 271.585938 C 257.308594 263.816406 256.484375 260.960938 254.085938 258.605469 C 252.921875 257.441406 251.582031 256.546875 250.0625 255.914062 C 248.546875 255.285156 246.964844 254.96875 245.320312 254.96875 C 243.789062 254.964844 242.265625 254.839844 240.757812 254.589844 C 239.246094 254.339844 237.765625 253.96875 236.3125 253.476562 C 234.863281 252.984375 233.460938 252.375 232.109375 251.65625 C 230.757812 250.933594 229.476562 250.109375 228.257812 249.179688 C 227.042969 248.25 225.90625 247.226562 224.859375 246.109375 C 223.808594 244.996094 222.855469 243.800781 222 242.53125 C 221.144531 241.261719 220.398438 239.929688 219.761719 238.535156 C 219.125 237.144531 218.601562 235.707031 218.199219 234.230469 C 217.796875 232.753906 217.515625 231.253906 217.355469 229.730469 C 217.199219 228.207031 217.164062 226.679688 217.253906 225.148438 C 217.34375 223.621094 217.558594 222.109375 217.894531 220.617188 C 218.234375 219.121094 218.6875 217.664062 219.265625 216.246094 C 219.839844 214.824219 220.527344 213.460938 221.324219 212.152344 C 222.121094 210.847656 223.019531 209.613281 224.019531 208.449219 C 225.015625 207.289062 226.105469 206.21875 227.277344 205.234375 C 228.453125 204.25 229.699219 203.367188 231.015625 202.585938 C 231.015625 202.585938 233.25 201.511719 233.953125 201.097656 C 255.574219 189.773438 273.804688 165.460938 286.332031 133.710938 C 288.328125 132.710938 290.289062 131.644531 292.214844 130.511719 C 294.136719 129.375 296.019531 128.175781 297.859375 126.914062 C 299.703125 125.648438 301.496094 124.324219 303.246094 122.933594 C 304.996094 121.546875 306.695312 120.101562 308.347656 118.597656 C 309.996094 117.089844 311.59375 115.53125 313.136719 113.917969 C 314.679688 112.300781 316.164062 110.636719 317.59375 108.917969 C 319.019531 107.199219 320.390625 105.4375 321.695312 103.625 C 323 101.8125 324.246094 99.960938 325.421875 98.0625 C 326.601562 96.164062 327.714844 94.230469 328.761719 92.257812 C 329.804688 90.28125 330.78125 88.277344 331.6875 86.234375 C 332.597656 84.195312 333.433594 82.125 334.195312 80.027344 C 334.960938 77.925781 335.652344 75.804688 336.273438 73.660156 C 336.890625 71.511719 337.433594 69.347656 337.902344 67.164062 C 338.375 64.980469 338.765625 62.785156 339.085938 60.574219 C 339.402344 58.363281 339.644531 56.144531 339.808594 53.917969 C 339.976562 51.6875 340.0625 49.457031 340.074219 47.226562 C 340.074219 46.441406 340.035156 45.65625 339.960938 44.875 C 339.882812 44.09375 339.769531 43.316406 339.613281 42.546875 C 339.460938 41.777344 339.269531 41.015625 339.042969 40.265625 C 338.816406 39.511719 338.550781 38.773438 338.25 38.050781 C 337.949219 37.324219 337.613281 36.613281 337.242188 35.921875 C 336.875 35.230469 336.472656 34.558594 336.035156 33.902344 C 335.597656 33.25 335.128906 32.621094 334.632812 32.015625 C 334.132812 31.40625 333.609375 30.824219 333.050781 30.269531 C 332.496094 29.714844 331.914062 29.1875 331.308594 28.691406 C 330.703125 28.191406 330.070312 27.726562 329.417969 27.289062 C 328.765625 26.851562 328.09375 26.449219 327.402344 26.078125 C 326.707031 25.707031 326 25.375 325.273438 25.074219 C 324.546875 24.773438 323.808594 24.507812 323.058594 24.28125 C 322.304688 24.050781 321.546875 23.859375 320.773438 23.707031 C 320.003906 23.554688 319.230469 23.441406 318.449219 23.363281 C 317.664062 23.285156 316.882812 23.246094 316.097656 23.246094 L 304.8125 23.246094 L 304.8125 9.234375 C 304.8125 8.894531 304.777344 8.558594 304.710938 8.222656 C 304.644531 7.890625 304.546875 7.570312 304.417969 7.253906 C 304.289062 6.941406 304.128906 6.644531 303.941406 6.363281 C 303.75 6.078125 303.539062 5.816406 303.296875 5.578125 C 303.058594 5.339844 302.796875 5.125 302.515625 4.9375 C 302.230469 4.746094 301.933594 4.589844 301.621094 4.457031 C 301.308594 4.328125 300.984375 4.230469 300.652344 4.164062 C 300.320312 4.097656 299.984375 4.066406 299.644531 4.066406 L 97.648438 4.066406 C 97.308594 4.066406 96.972656 4.097656 96.640625 4.164062 C 96.308594 4.230469 95.984375 4.328125 95.671875 4.457031 C 95.355469 4.589844 95.058594 4.746094 94.777344 4.9375 C 94.496094 5.125 94.234375 5.339844 93.992188 5.578125 C 93.753906 5.816406 93.539062 6.078125 93.351562 6.363281 C 93.164062 6.644531 93.003906 6.941406 92.875 7.253906 C 92.742188 7.570312 92.644531 7.890625 92.578125 8.222656 C 92.511719 8.558594 92.480469 8.894531 92.480469 9.234375 L 92.480469 23.246094 L 80.078125 23.246094 C 79.292969 23.25 78.511719 23.289062 77.730469 23.367188 C 76.949219 23.445312 76.175781 23.5625 75.40625 23.714844 C 74.636719 23.871094 73.875 24.0625 73.125 24.289062 C 72.375 24.519531 71.636719 24.785156 70.914062 25.085938 C 70.191406 25.386719 69.480469 25.722656 68.789062 26.09375 C 68.097656 26.460938 67.425781 26.867188 66.777344 27.300781 C 66.125 27.738281 65.496094 28.207031 64.890625 28.703125 C 64.285156 29.203125 63.703125 29.730469 63.148438 30.285156 C 62.59375 30.839844 62.070312 31.421875 61.570312 32.027344 C 61.074219 32.632812 60.609375 33.265625 60.171875 33.917969 C 59.738281 34.570312 59.335938 35.242188 58.964844 35.933594 C 58.597656 36.625 58.261719 37.335938 57.960938 38.058594 C 57.660156 38.785156 57.398438 39.523438 57.171875 40.273438 C 56.945312 41.023438 56.753906 41.785156 56.601562 42.550781 C 56.449219 43.320312 56.332031 44.097656 56.257812 44.878906 C 56.179688 45.660156 56.140625 46.441406 56.140625 47.226562 C 56.148438 49.46875 56.234375 51.710938 56.398438 53.953125 C 56.5625 56.191406 56.804688 58.421875 57.121094 60.644531 C 57.4375 62.867188 57.832031 65.074219 58.304688 67.269531 C 58.773438 69.464844 59.320312 71.640625 59.941406 73.800781 C 60.566406 75.957031 61.261719 78.089844 62.03125 80.199219 C 62.800781 82.308594 63.640625 84.390625 64.554688 86.441406 C 65.46875 88.492188 66.449219 90.507812 67.503906 92.492188 C 68.554688 94.472656 69.675781 96.417969 70.863281 98.324219 C 72.050781 100.226562 73.304688 102.089844 74.621094 103.910156 C 75.9375 105.726562 77.316406 107.496094 78.753906 109.222656 C 80.195312 110.945312 81.691406 112.617188 83.246094 114.234375 C 84.800781 115.855469 86.410156 117.417969 88.074219 118.925781 C 89.734375 120.433594 91.449219 121.882812 93.210938 123.273438 C 94.976562 124.664062 96.785156 125.988281 98.640625 127.253906 C 100.496094 128.519531 102.394531 129.714844 104.332031 130.847656 C 106.269531 131.980469 108.246094 133.046875 110.257812 134.042969 C 110.46875 134.144531 110.691406 134.226562 110.917969 134.292969 C 123.320312 165.753906 141.550781 189.855469 162.96875 201.097656 L 165.777344 202.546875 C 167.113281 203.3125 168.378906 204.179688 169.570312 205.152344 C 170.765625 206.128906 171.871094 207.191406 172.886719 208.34375 C 173.90625 209.5 174.824219 210.730469 175.640625 212.035156 C 176.457031 213.339844 177.160156 214.703125 177.75 216.125 C 178.34375 217.546875 178.816406 219.007812 179.167969 220.503906 C 179.519531 222.003906 179.75 223.519531 179.851562 225.054688 C 179.953125 226.59375 179.929688 228.125 179.78125 229.660156 C 179.632812 231.191406 179.359375 232.699219 178.964844 234.1875 C 178.566406 235.675781 178.050781 237.121094 177.417969 238.523438 C 176.78125 239.925781 176.039062 241.265625 175.183594 242.546875 C 174.328125 243.828125 173.375 245.03125 172.320312 246.152344 C 171.269531 247.277344 170.132812 248.308594 168.910156 249.246094 C 167.691406 250.179688 166.398438 251.011719 165.042969 251.738281 C 163.683594 252.460938 162.277344 253.070312 160.816406 253.566406 C 159.359375 254.058594 157.871094 254.429688 156.351562 254.679688 C 154.832031 254.929688 153.304688 255.050781 151.765625 255.050781 C 150.121094 255.050781 148.539062 255.367188 147.019531 255.996094 C 145.5 256.628906 144.160156 257.523438 143 258.6875 C 140.644531 261.042969 139.773438 263.898438 139.484375 271.667969 L 102.941406 271.667969 C 102.601562 271.667969 102.265625 271.703125 101.929688 271.769531 C 101.597656 271.835938 101.273438 271.933594 100.960938 272.0625 C 100.648438 272.191406 100.351562 272.351562 100.070312 272.539062 C 99.785156 272.730469 99.523438 272.941406 99.285156 273.183594 C 99.046875 273.421875 98.832031 273.683594 98.644531 273.964844 C 98.453125 274.25 98.296875 274.546875 98.164062 274.859375 C 98.035156 275.171875 97.9375 275.496094 97.871094 275.828125 C 97.804688 276.160156 97.773438 276.496094 97.773438 276.835938 L 97.773438 360.71875 L 85.164062 360.71875 C 84.824219 360.71875 84.488281 360.753906 84.15625 360.820312 C 83.820312 360.886719 83.5 360.984375 83.183594 361.113281 C 82.871094 361.242188 82.574219 361.402344 82.292969 361.589844 C 82.007812 361.777344 81.75 361.992188 81.507812 362.234375 C 81.269531 362.472656 81.054688 362.734375 80.867188 363.015625 C 80.675781 363.296875 80.519531 363.597656 80.386719 363.910156 C 80.257812 364.222656 80.160156 364.546875 80.09375 364.878906 C 80.027344 365.210938 79.996094 365.546875 79.996094 365.886719 C 79.996094 366.226562 80.027344 366.5625 80.09375 366.894531 C 80.160156 367.226562 80.257812 367.550781 80.386719 367.863281 C 80.519531 368.179688 80.675781 368.476562 80.867188 368.757812 C 81.054688 369.039062 81.269531 369.300781 81.507812 369.542969 C 81.75 369.78125 82.007812 369.996094 82.292969 370.183594 C 82.574219 370.371094 82.871094 370.53125 83.183594 370.660156 C 83.5 370.792969 83.820312 370.890625 84.15625 370.957031 C 84.488281 371.023438 84.824219 371.054688 85.164062 371.054688 L 311.21875 371.054688 C 311.558594 371.054688 311.894531 371.023438 312.226562 370.957031 C 312.558594 370.890625 312.882812 370.792969 313.195312 370.660156 C 313.511719 370.53125 313.808594 370.371094 314.089844 370.183594 C 314.371094 369.996094 314.632812 369.78125 314.875 369.542969 C 315.113281 369.300781 315.328125 369.039062 315.515625 368.757812 C 315.703125 368.476562 315.863281 368.179688 315.992188 367.863281 C 316.125 367.550781 316.222656 367.226562 316.289062 366.894531 C 316.351562 366.5625 316.386719 366.226562 316.386719 365.886719 C 316.386719 365.546875 316.351562 365.210938 316.289062 364.878906 C 316.222656 364.546875 316.125 364.222656 315.992188 363.910156 C 315.863281 363.597656 315.703125 363.296875 315.515625 363.015625 C 315.328125 362.734375 315.113281 362.472656 314.875 362.234375 C 314.632812 361.992188 314.371094 361.777344 314.089844 361.589844 C 313.808594 361.402344 313.511719 361.242188 313.195312 361.113281 C 312.882812 360.984375 312.558594 360.886719 312.226562 360.820312 C 311.894531 360.753906 311.558594 360.71875 311.21875 360.71875 Z M 325.6875 37.59375 C 326.996094 38.855469 328.007812 40.324219 328.722656 41.992188 C 329.441406 43.664062 329.808594 45.40625 329.824219 47.226562 C 329.808594 50.734375 329.578125 54.230469 329.140625 57.714844 C 328.699219 61.195312 328.050781 64.636719 327.195312 68.042969 C 326.335938 71.445312 325.277344 74.785156 324.015625 78.058594 C 322.753906 81.332031 321.296875 84.519531 319.648438 87.617188 C 318 90.714844 316.167969 93.703125 314.15625 96.582031 C 312.148438 99.457031 309.96875 102.203125 307.625 104.8125 C 305.28125 107.425781 302.789062 109.886719 300.144531 112.195312 C 297.503906 114.507812 294.730469 116.648438 291.828125 118.621094 C 296.074219 104.847656 299.28125 90.832031 301.449219 76.582031 C 303.621094 62.332031 304.726562 47.996094 304.769531 33.582031 L 316.054688 33.582031 C 317.867188 33.574219 319.605469 33.914062 321.277344 34.613281 C 322.949219 35.308594 324.421875 36.300781 325.6875 37.59375 Z M 260.453125 96.089844 C 263.699219 85.609375 265.984375 74.925781 267.3125 64.035156 C 268.636719 53.144531 268.984375 42.222656 268.347656 31.269531 C 268.308594 30.929688 268.304688 30.59375 268.335938 30.257812 C 268.363281 29.917969 268.425781 29.589844 268.519531 29.261719 C 268.613281 28.9375 268.738281 28.625 268.894531 28.324219 C 269.046875 28.023438 269.230469 27.738281 269.441406 27.476562 C 269.652344 27.210938 269.886719 26.96875 270.148438 26.75 C 270.40625 26.53125 270.683594 26.339844 270.980469 26.175781 C 271.273438 26.011719 271.585938 25.878906 271.90625 25.773438 C 272.230469 25.671875 272.558594 25.601562 272.894531 25.5625 C 273.234375 25.519531 273.570312 25.511719 273.910156 25.535156 C 274.25 25.558594 274.582031 25.617188 274.910156 25.710938 C 275.238281 25.800781 275.554688 25.925781 275.855469 26.078125 C 276.160156 26.234375 276.441406 26.417969 276.710938 26.628906 C 276.976562 26.84375 277.21875 27.078125 277.4375 27.339844 C 277.65625 27.601562 277.84375 27.878906 278.007812 28.179688 C 278.167969 28.476562 278.300781 28.789062 278.402344 29.113281 C 278.5 29.441406 278.566406 29.773438 278.601562 30.109375 C 279.359375 41.753906 279.042969 53.367188 277.652344 64.949219 C 276.261719 76.535156 273.824219 87.894531 270.332031 99.027344 C 270.171875 99.5625 269.933594 100.058594 269.613281 100.515625 C 269.296875 100.972656 268.910156 101.371094 268.464844 101.707031 C 268.019531 102.039062 267.53125 102.296875 267.003906 102.476562 C 266.472656 102.652344 265.929688 102.742188 265.371094 102.746094 C 264.878906 102.738281 264.398438 102.667969 263.925781 102.539062 C 263.601562 102.4375 263.289062 102.308594 262.992188 102.144531 C 262.695312 101.984375 262.414062 101.792969 262.15625 101.578125 C 261.894531 101.363281 261.65625 101.125 261.441406 100.863281 C 261.226562 100.601562 261.039062 100.320312 260.878906 100.023438 C 260.714844 99.722656 260.585938 99.414062 260.484375 99.089844 C 260.386719 98.765625 260.316406 98.433594 260.28125 98.097656 C 260.242188 97.761719 260.238281 97.425781 260.269531 97.085938 C 260.296875 96.75 260.359375 96.417969 260.453125 96.089844 Z M 260.203125 108.699219 C 260.542969 108.703125 260.878906 108.738281 261.207031 108.808594 C 261.539062 108.875 261.863281 108.976562 262.175781 109.109375 C 262.488281 109.242188 262.78125 109.402344 263.0625 109.589844 C 263.34375 109.78125 263.601562 109.996094 263.839844 110.238281 C 264.078125 110.480469 264.289062 110.742188 264.476562 111.023438 C 264.664062 111.308594 264.820312 111.605469 264.949219 111.917969 C 265.074219 112.234375 265.171875 112.554688 265.234375 112.886719 C 265.300781 113.222656 265.332031 113.558594 265.328125 113.894531 C 265.328125 114.234375 265.292969 114.570312 265.226562 114.902344 C 265.15625 115.234375 265.058594 115.554688 264.925781 115.867188 C 264.796875 116.179688 264.636719 116.476562 264.445312 116.757812 C 264.257812 117.039062 264.042969 117.296875 263.800781 117.535156 C 263.5625 117.773438 263.300781 117.988281 263.015625 118.175781 C 262.734375 118.363281 262.4375 118.519531 262.125 118.648438 C 261.808594 118.777344 261.488281 118.875 261.15625 118.941406 C 260.824219 119.003906 260.488281 119.035156 260.148438 119.035156 C 259.808594 119.035156 259.472656 119 259.140625 118.933594 C 258.808594 118.867188 258.488281 118.769531 258.175781 118.636719 C 257.863281 118.507812 257.566406 118.347656 257.285156 118.160156 C 257.003906 117.972656 256.742188 117.757812 256.503906 117.515625 C 256.265625 117.277344 256.050781 117.015625 255.863281 116.734375 C 255.675781 116.453125 255.515625 116.15625 255.386719 115.84375 C 255.257812 115.53125 255.160156 115.207031 255.09375 114.875 C 255.027344 114.542969 254.996094 114.207031 254.996094 113.867188 C 254.996094 113.527344 255.027344 113.1875 255.09375 112.851562 C 255.164062 112.515625 255.261719 112.1875 255.394531 111.871094 C 255.527344 111.554688 255.691406 111.253906 255.882812 110.972656 C 256.074219 110.6875 256.292969 110.425781 256.535156 110.183594 C 256.78125 109.945312 257.046875 109.730469 257.332031 109.542969 C 257.621094 109.355469 257.921875 109.199219 258.242188 109.070312 C 258.558594 108.941406 258.886719 108.847656 259.226562 108.785156 C 259.5625 108.722656 259.902344 108.695312 260.246094 108.699219 Z M 66.601562 47.226562 C 66.601562 46.332031 66.691406 45.449219 66.867188 44.570312 C 67.042969 43.695312 67.304688 42.84375 67.644531 42.019531 C 67.988281 41.195312 68.40625 40.410156 68.902344 39.667969 C 69.398438 38.925781 69.960938 38.238281 70.59375 37.605469 C 71.222656 36.972656 71.910156 36.40625 72.652344 35.910156 C 73.394531 35.410156 74.175781 34.988281 75 34.644531 C 75.824219 34.300781 76.671875 34.039062 77.546875 33.859375 C 78.425781 33.679688 79.308594 33.589844 80.203125 33.582031 L 92.605469 33.582031 C 92.679688 48.128906 93.828125 62.589844 96.050781 76.96875 C 98.273438 91.34375 101.550781 105.476562 105.875 119.367188 C 102.886719 117.410156 100.03125 115.28125 97.308594 112.972656 C 94.585938 110.667969 92.011719 108.203125 89.59375 105.578125 C 87.171875 102.953125 84.925781 100.191406 82.84375 97.289062 C 80.765625 94.386719 78.871094 91.371094 77.167969 88.234375 C 75.460938 85.101562 73.953125 81.871094 72.644531 78.550781 C 71.335938 75.230469 70.234375 71.839844 69.34375 68.382812 C 68.453125 64.925781 67.777344 61.429688 67.320312 57.890625 C 66.859375 54.347656 66.621094 50.796875 66.601562 47.226562 Z M 162.097656 63.058594 L 154.121094 57.273438 C 153.675781 56.960938 153.191406 56.726562 152.671875 56.5625 C 152.15625 56.402344 151.625 56.320312 151.082031 56.320312 C 150.539062 56.320312 150.007812 56.402344 149.488281 56.5625 C 148.972656 56.726562 148.488281 56.960938 148.042969 57.273438 L 140.105469 63.058594 L 140.105469 14.398438 L 162.097656 14.398438 Z M 107.941406 360.71875 L 107.941406 281.921875 L 288.273438 281.921875 L 288.273438 360.71875 Z M 107.941406 360.71875 " fill-opacity="1" fill-rule="nonzero"/></g><path fill="#0000ff" d="M 143.496094 301.105469 L 254.703125 301.105469 C 255.042969 301.105469 255.378906 301.136719 255.714844 301.203125 C 256.046875 301.269531 256.367188 301.367188 256.683594 301.5 C 256.996094 301.628906 257.292969 301.789062 257.574219 301.976562 C 257.859375 302.164062 258.117188 302.378906 258.359375 302.617188 C 258.597656 302.859375 258.8125 303.121094 259 303.402344 C 259.191406 303.683594 259.347656 303.980469 259.480469 304.292969 C 259.609375 304.609375 259.707031 304.929688 259.773438 305.265625 C 259.839844 305.597656 259.871094 305.933594 259.871094 306.273438 L 259.871094 336.410156 C 259.871094 336.75 259.839844 337.085938 259.773438 337.417969 C 259.707031 337.75 259.609375 338.074219 259.480469 338.386719 C 259.347656 338.703125 259.191406 339 259 339.28125 C 258.8125 339.5625 258.597656 339.824219 258.359375 340.066406 C 258.117188 340.304688 257.859375 340.519531 257.574219 340.707031 C 257.292969 340.894531 256.996094 341.054688 256.683594 341.183594 C 256.367188 341.316406 256.046875 341.414062 255.714844 341.480469 C 255.378906 341.546875 255.042969 341.578125 254.703125 341.578125 L 143.496094 341.578125 C 143.15625 341.578125 142.820312 341.546875 142.488281 341.480469 C 142.15625 341.414062 141.832031 341.316406 141.519531 341.183594 C 141.203125 341.054688 140.90625 340.894531 140.625 340.707031 C 140.34375 340.519531 140.082031 340.304688 139.839844 340.066406 C 139.601562 339.824219 139.386719 339.5625 139.199219 339.28125 C 139.011719 339 138.851562 338.703125 138.722656 338.386719 C 138.589844 338.074219 138.492188 337.75 138.425781 337.417969 C 138.359375 337.085938 138.328125 336.75 138.328125 336.410156 L 138.328125 306.273438 C 138.328125 305.933594 138.359375 305.597656 138.425781 305.265625 C 138.492188 304.929688 138.589844 304.609375 138.722656 304.296875 C 138.851562 303.980469 139.011719 303.683594 139.199219 303.402344 C 139.386719 303.121094 139.601562 302.859375 139.839844 302.617188 C 140.082031 302.378906 140.34375 302.164062 140.625 301.976562 C 140.90625 301.789062 141.203125 301.628906 141.519531 301.5 C 141.832031 301.367188 142.15625 301.269531 142.488281 301.203125 C 142.820312 301.136719 143.15625 301.105469 143.496094 301.105469 Z M 143.496094 301.105469 " fill-opacity="1" fill-rule="nonzero"/><g clip-path="url(#4d663aa40c)"><path fill="#fff7f7" d="M 181.953125 223.019531 L 181.953125 171.007812 C 181.953125 164.085938 187.5625 158.476562 194.484375 158.476562 L 237.199219 158.476562 C 244.121094 158.476562 249.730469 152.863281 249.730469 145.941406 L 249.730469 94.957031 C 249.730469 88.035156 244.121094 82.425781 237.199219 82.425781 C 237.199219 82.425781 232.453125 82.425781 226.125 82.425781 C 219.796875 82.425781 211.886719 82.425781 205.558594 82.425781 C 198.800781 81.316406 189.304688 81.316406 186.136719 78.152344 C 173.476562 59.15625 198.800781 11.671875 159.503906 13.308594 C 153.839844 13.28125 146.753906 13.273438 141.089844 13.273438 C 135.421875 13.273438 131.171875 13.273438 131.171875 13.273438 C 124.25 13.273438 118.640625 18.882812 118.640625 25.804688 L 118.640625 69.890625 C 118.640625 73.351562 117.238281 76.484375 114.96875 78.753906 C 112.703125 81.019531 109.570312 82.433594 106.109375 82.492188 C 84.839844 90.8125 34.191406 71.820312 39.863281 108.28125 C 39.863281 115.726562 39.863281 125.171875 39.863281 132.722656 C 39.863281 140.277344 39.863281 145.941406 39.863281 145.941406 C 39.863281 152.863281 45.472656 158.472656 52.394531 158.472656 C 52.394531 158.472656 76.265625 158.472656 92.183594 158.472656 C 96.160156 158.472656 99.644531 158.472656 102.128906 158.472656 C 106.996094 157.289062 113.328125 160.457031 116.496094 163.621094 C 129.15625 188.945312 103.832031 245.925781 150.296875 235.550781 C 153.484375 235.550781 156.671875 235.550781 159.503906 235.550781 C 165.171875 235.550781 169.421875 235.550781 169.421875 235.550781 C 176.339844 235.550781 181.953125 229.941406 181.953125 223.019531 Z M 181.953125 223.019531 " fill-opacity="1" fill-rule="nonzero"/></g><path fill="#183e9f" d="M 238.144531 135.246094 C 239.160156 138.347656 238.664062 141.828125 236.691406 144.460938 C 234.652344 147.183594 231.308594 148.445312 228.101562 149.148438 C 224.242188 149.992188 220.234375 150.257812 216.300781 150.554688 C 211.902344 150.890625 207.488281 151.074219 203.074219 151.109375 C 198.050781 151.152344 193.027344 150.996094 188.011719 150.65625 C 186.015625 150.519531 186.023438 153.628906 188.011719 153.761719 C 197.566406 154.410156 207.160156 154.375 216.710938 153.632812 C 220.984375 153.296875 225.378906 153.011719 229.558594 152 C 233.207031 151.117188 236.761719 149.433594 239.09375 146.398438 C 241.679688 143.039062 242.457031 138.445312 241.140625 134.417969 C 240.519531 132.527344 237.519531 133.335938 238.144531 135.246094 Z M 238.144531 135.246094 " fill-opacity="1" fill-rule="nonzero"/><path fill="#183e9f" d="M 219.496094 142.335938 C 211.425781 143.527344 203.238281 143.835938 195.097656 143.339844 C 193.097656 143.21875 193.105469 146.324219 195.097656 146.445312 C 203.527344 146.960938 211.964844 146.5625 220.324219 145.332031 C 221.152344 145.210938 221.613281 144.160156 221.410156 143.421875 C 221.160156 142.53125 220.335938 142.214844 219.496094 142.335938 Z M 219.496094 142.335938 " fill-opacity="1" fill-rule="nonzero"/><path fill="#183e9f" d="M 125.269531 51.25 C 123.695312 60.1875 126.09375 69.34375 124.199219 78.226562 C 123.4375 81.789062 122.015625 85.304688 119.378906 87.898438 C 116.511719 90.710938 112.550781 91.855469 108.667969 92.40625 C 103.414062 93.144531 98 93.171875 92.707031 92.953125 C 90.710938 92.871094 90.710938 95.980469 92.707031 96.0625 C 97.761719 96.269531 102.871094 96.199219 107.894531 95.609375 C 112.191406 95.105469 116.539062 94.09375 120.035156 91.414062 C 126.78125 86.246094 128.132812 77.128906 128.011719 69.171875 C 127.929688 63.480469 127.269531 57.722656 128.265625 52.074219 C 128.609375 50.121094 125.617188 49.28125 125.269531 51.25 Z M 125.269531 51.25 " fill-opacity="1" fill-rule="nonzero"/><path fill="#183e9f" d="M 130.0625 86.296875 C 131.152344 92.421875 125.640625 97.191406 120.363281 98.832031 C 113.667969 100.910156 106.550781 99.804688 99.671875 100.210938 C 97.683594 100.324219 97.667969 103.433594 99.671875 103.316406 C 107.371094 102.867188 115.472656 104.195312 122.832031 101.246094 C 129.183594 98.699219 134.339844 92.664062 133.058594 85.46875 C 132.710938 83.503906 129.714844 84.335938 130.0625 86.296875 Z M 130.0625 86.296875 " fill-opacity="1" fill-rule="nonzero"/></svg>