<svg xmlns="http://www.w3.org/2000/svg" xmlns:xlink="http://www.w3.org/1999/xlink" width="160" zoomAndPan="magnify" viewBox="0 0 120 44.999999" height="60" preserveAspectRatio="xMidYMid meet" version="1.0"><defs><g/></defs><g fill="#183e9f" fill-opacity="1"><g transform="translate(-0.216406, 26.076615)"><g><path d="M 16.90625 -0.015625 L 14 -0.015625 L 14 -10.6875 C 14 -10.882812 14.035156 -11.398438 14.109375 -12.234375 C 14.066406 -12.117188 14.007812 -11.957031 13.9375 -11.75 C 13.875 -11.539062 13.8125 -11.347656 13.75 -11.171875 C 13.695312 -11.003906 13.644531 -10.84375 13.59375 -10.6875 L 9.734375 0 L 8.15625 0 L 4.1875 -10.6875 C 4.132812 -10.84375 4.078125 -11.003906 4.015625 -11.171875 C 3.960938 -11.347656 3.898438 -11.539062 3.828125 -11.75 C 3.765625 -11.957031 3.710938 -12.117188 3.671875 -12.234375 C 3.671875 -12.109375 3.6875 -11.863281 3.71875 -11.5 C 3.757812 -11.144531 3.78125 -10.875 3.78125 -10.6875 L 3.78125 -0.015625 L 1.4375 -0.015625 L 1.4375 -14.421875 C 1.4375 -14.441406 1.410156 -14.550781 1.359375 -14.75 C 1.316406 -14.945312 1.269531 -15.148438 1.21875 -15.359375 C 1.164062 -15.578125 1.140625 -15.703125 1.140625 -15.734375 L 5.265625 -15.734375 L 8.625 -6.703125 C 8.78125 -6.273438 8.988281 -5.410156 9.25 -4.109375 C 9.269531 -4.203125 9.34375 -4.5625 9.46875 -5.1875 C 9.59375 -5.8125 9.710938 -6.289062 9.828125 -6.625 L 13.109375 -15.734375 L 16.90625 -15.734375 Z M 16.90625 -0.015625 "/></g></g></g><g fill="#183e9f" fill-opacity="1"><g transform="translate(17.791044, 26.076615)"><g><path d="M 11.015625 0 L 1.4375 0 L 1.4375 -14.421875 L 1.125 -15.734375 L 11.015625 -15.734375 L 11.015625 -13.609375 L 4.390625 -13.609375 L 4.390625 -9.15625 L 9.453125 -9.15625 L 9.453125 -7.03125 L 4.390625 -7.03125 L 4.390625 -2.125 L 11.015625 -2.125 Z M 11.015625 0 "/></g></g></g><g fill="#183e9f" fill-opacity="1"><g transform="translate(29.588284, 26.076615)"><g><path d="M 14.625 -7.84375 C 14.625 -5.4375 13.882812 -3.503906 12.40625 -2.046875 C 11.039062 -0.679688 9.25 0 7.03125 0 L 1.4375 0 L 1.4375 -14.421875 C 1.4375 -14.441406 1.382812 -14.65625 1.28125 -15.0625 C 1.175781 -15.46875 1.113281 -15.691406 1.09375 -15.734375 L 7.046875 -15.734375 C 9.410156 -15.734375 11.265625 -15.015625 12.609375 -13.578125 C 13.953125 -12.140625 14.625 -10.226562 14.625 -7.84375 Z M 11.4375 -7.765625 C 11.4375 -8.796875 11.289062 -9.734375 11 -10.578125 C 10.71875 -11.421875 10.222656 -12.132812 9.515625 -12.71875 C 8.804688 -13.3125 7.921875 -13.609375 6.859375 -13.609375 L 4.40625 -13.609375 L 4.40625 -2.125 L 6.90625 -2.125 C 7.6875 -2.125 8.378906 -2.273438 8.984375 -2.578125 C 9.585938 -2.890625 10.0625 -3.316406 10.40625 -3.859375 C 10.75 -4.398438 11.003906 -4.992188 11.171875 -5.640625 C 11.347656 -6.296875 11.4375 -7.003906 11.4375 -7.765625 Z M 11.4375 -7.765625 "/></g></g></g><g fill="#183e9f" fill-opacity="1"><g transform="translate(44.608821, 26.076615)"><g><path d="M 4.390625 0 L 1.421875 0 L 1.421875 -14.421875 C 1.421875 -14.441406 1.394531 -14.550781 1.34375 -14.75 C 1.289062 -14.945312 1.238281 -15.148438 1.1875 -15.359375 C 1.144531 -15.578125 1.125 -15.703125 1.125 -15.734375 L 4.390625 -15.734375 Z M 4.390625 0 "/></g></g></g><g fill="#183e9f" fill-opacity="1"><g transform="translate(50.367769, 26.076615)"><g><path d="M 25.453125 3.5 C 24.035156 3.988281 23.03125 4.300781 22.4375 4.4375 C 21.851562 4.570312 21.078125 4.640625 20.109375 4.640625 C 19.484375 4.640625 18.804688 4.5625 18.078125 4.40625 C 17.347656 4.25 16.539062 4.003906 15.65625 3.671875 C 14.78125 3.347656 14.054688 3.0625 13.484375 2.8125 C 12.910156 2.570312 12.117188 2.222656 11.109375 1.765625 C 10.109375 1.304688 9.476562 1.019531 9.21875 0.90625 C 8.789062 0.71875 7.875 0.472656 6.46875 0.171875 C 4.394531 -0.273438 2.863281 -1.210938 1.875 -2.640625 C 0.894531 -4.078125 0.40625 -5.804688 0.40625 -7.828125 C 0.40625 -8.898438 0.5625 -9.921875 0.875 -10.890625 C 1.195312 -11.859375 1.65625 -12.722656 2.25 -13.484375 C 2.851562 -14.253906 3.640625 -14.863281 4.609375 -15.3125 C 5.585938 -15.769531 6.695312 -16 7.9375 -16 C 9.164062 -16 10.265625 -15.769531 11.234375 -15.3125 C 12.210938 -14.863281 13.003906 -14.253906 13.609375 -13.484375 C 14.210938 -12.722656 14.664062 -11.859375 14.96875 -10.890625 C 15.28125 -9.921875 15.4375 -8.898438 15.4375 -7.828125 C 15.4375 -6.316406 15.117188 -4.910156 14.484375 -3.609375 C 13.859375 -2.316406 12.875 -1.304688 11.53125 -0.578125 L 11.78125 -0.453125 C 12.945312 0.109375 13.90625 0.5625 14.65625 0.90625 C 15.414062 1.25 16.441406 1.617188 17.734375 2.015625 C 19.023438 2.421875 20.109375 2.625 20.984375 2.625 C 21.960938 2.625 23.289062 2.375 24.96875 1.875 Z M 12.28125 -7.828125 C 12.28125 -8.890625 12.140625 -9.859375 11.859375 -10.734375 C 11.585938 -11.617188 11.113281 -12.375 10.4375 -13 C 9.769531 -13.625 8.9375 -13.9375 7.9375 -13.9375 C 6.945312 -13.9375 6.109375 -13.625 5.421875 -13 C 4.742188 -12.375 4.269531 -11.613281 4 -10.71875 C 3.726562 -9.832031 3.59375 -8.859375 3.59375 -7.796875 C 3.59375 -6.753906 3.726562 -5.800781 4 -4.9375 C 4.269531 -4.070312 4.742188 -3.335938 5.421875 -2.734375 C 6.109375 -2.128906 6.945312 -1.828125 7.9375 -1.828125 C 9.394531 -1.828125 10.484375 -2.410156 11.203125 -3.578125 C 11.921875 -4.742188 12.28125 -6.160156 12.28125 -7.828125 Z M 12.28125 -7.828125 "/></g></g></g><g fill="#183e9f" fill-opacity="1"><g transform="translate(66.204874, 26.076615)"><g><path d="M 13.84375 -5.984375 C 13.84375 -3.847656 13.28125 -2.273438 12.15625 -1.265625 C 11.03125 -0.265625 9.53125 0.234375 7.65625 0.234375 C 5.664062 0.234375 4.132812 -0.296875 3.0625 -1.359375 C 2 -2.429688 1.46875 -3.972656 1.46875 -5.984375 L 1.46875 -14.453125 L 1.125 -15.734375 L 4.5 -15.734375 L 4.5 -5.265625 C 4.5 -4.222656 4.8125 -3.382812 5.4375 -2.75 C 6.070312 -2.125 6.910156 -1.8125 7.953125 -1.8125 C 9.015625 -1.8125 9.859375 -2.117188 10.484375 -2.734375 C 11.109375 -3.347656 11.421875 -4.191406 11.421875 -5.265625 L 11.421875 -15.734375 L 13.84375 -15.734375 Z M 13.84375 -5.984375 "/></g></g></g><g fill="#183e9f" fill-opacity="1"><g transform="translate(81.397316, 26.076615)"><g><path d="M 11.015625 0 L 1.4375 0 L 1.4375 -14.421875 L 1.125 -15.734375 L 11.015625 -15.734375 L 11.015625 -13.609375 L 4.390625 -13.609375 L 4.390625 -9.15625 L 9.453125 -9.15625 L 9.453125 -7.03125 L 4.390625 -7.03125 L 4.390625 -2.125 L 11.015625 -2.125 Z M 11.015625 0 "/></g></g></g><g fill="#183e9f" fill-opacity="1"><g transform="translate(93.194556, 26.076615)"><g><path d="M 13.84375 -5.984375 C 13.84375 -3.847656 13.28125 -2.273438 12.15625 -1.265625 C 11.03125 -0.265625 9.53125 0.234375 7.65625 0.234375 C 5.664062 0.234375 4.132812 -0.296875 3.0625 -1.359375 C 2 -2.429688 1.46875 -3.972656 1.46875 -5.984375 L 1.46875 -14.453125 L 1.125 -15.734375 L 4.5 -15.734375 L 4.5 -5.265625 C 4.5 -4.222656 4.8125 -3.382812 5.4375 -2.75 C 6.070312 -2.125 6.910156 -1.8125 7.953125 -1.8125 C 9.015625 -1.8125 9.859375 -2.117188 10.484375 -2.734375 C 11.109375 -3.347656 11.421875 -4.191406 11.421875 -5.265625 L 11.421875 -15.734375 L 13.84375 -15.734375 Z M 13.84375 -5.984375 "/></g></g></g><g fill="#183e9f" fill-opacity="1"><g transform="translate(108.386999, 26.076615)"><g><path d="M 11.015625 0 L 1.4375 0 L 1.4375 -14.421875 L 1.125 -15.734375 L 11.015625 -15.734375 L 11.015625 -13.609375 L 4.390625 -13.609375 L 4.390625 -9.15625 L 9.453125 -9.15625 L 9.453125 -7.03125 L 4.390625 -7.03125 L 4.390625 -2.125 L 11.015625 -2.125 Z M 11.015625 0 "/></g></g></g><g fill="#5271ff" fill-opacity="1"><g transform="translate(13.805696, 37.289753)"><g><path d="M 4.015625 -5.609375 L 4.015625 -1.796875 C 4.015625 -1.203125 3.847656 -0.742188 3.515625 -0.421875 C 3.179688 -0.0976562 2.734375 0.0625 2.171875 0.0625 C 1.578125 0.0625 1.097656 -0.101562 0.734375 -0.4375 C 0.378906 -0.78125 0.203125 -1.257812 0.203125 -1.875 L 1.5625 -1.875 C 1.5625 -1.644531 1.609375 -1.46875 1.703125 -1.34375 C 1.804688 -1.226562 1.945312 -1.171875 2.125 -1.171875 C 2.289062 -1.171875 2.414062 -1.222656 2.5 -1.328125 C 2.59375 -1.429688 2.640625 -1.585938 2.640625 -1.796875 L 2.640625 -5.609375 Z M 4.015625 -5.609375 "/></g></g></g><g fill="#5271ff" fill-opacity="1"><g transform="translate(18.429732, 37.289753)"><g><path d="M 1.84375 -5.609375 L 1.84375 -2.25 C 1.84375 -1.914062 1.925781 -1.65625 2.09375 -1.46875 C 2.257812 -1.289062 2.5 -1.203125 2.8125 -1.203125 C 3.132812 -1.203125 3.378906 -1.289062 3.546875 -1.46875 C 3.722656 -1.65625 3.8125 -1.914062 3.8125 -2.25 L 3.8125 -5.609375 L 5.171875 -5.609375 L 5.171875 -2.265625 C 5.171875 -1.765625 5.0625 -1.335938 4.84375 -0.984375 C 4.632812 -0.640625 4.347656 -0.378906 3.984375 -0.203125 C 3.628906 -0.0234375 3.234375 0.0625 2.796875 0.0625 C 2.347656 0.0625 1.945312 -0.0234375 1.59375 -0.203125 C 1.25 -0.378906 0.972656 -0.640625 0.765625 -0.984375 C 0.566406 -1.335938 0.46875 -1.765625 0.46875 -2.265625 L 0.46875 -5.609375 Z M 1.84375 -5.609375 "/></g></g></g><g fill="#5271ff" fill-opacity="1"><g transform="translate(24.069771, 37.289753)"><g><path d="M 3.984375 -0.984375 L 1.890625 -0.984375 L 1.5625 0 L 0.125 0 L 2.15625 -5.609375 L 3.75 -5.609375 L 5.78125 0 L 4.328125 0 Z M 3.640625 -2.046875 L 2.9375 -4.109375 L 2.25 -2.046875 Z M 3.640625 -2.046875 "/></g></g></g><g fill="#5271ff" fill-opacity="1"><g transform="translate(29.965811, 37.289753)"><g><path d="M 3.359375 0 L 2.1875 -2.125 L 1.859375 -2.125 L 1.859375 0 L 0.5 0 L 0.5 -5.609375 L 2.796875 -5.609375 C 3.234375 -5.609375 3.609375 -5.53125 3.921875 -5.375 C 4.234375 -5.226562 4.46875 -5.019531 4.625 -4.75 C 4.78125 -4.476562 4.859375 -4.175781 4.859375 -3.84375 C 4.859375 -3.46875 4.75 -3.132812 4.53125 -2.84375 C 4.320312 -2.550781 4.015625 -2.34375 3.609375 -2.21875 L 4.90625 0 Z M 1.859375 -3.09375 L 2.71875 -3.09375 C 2.96875 -3.09375 3.15625 -3.148438 3.28125 -3.265625 C 3.40625 -3.390625 3.46875 -3.566406 3.46875 -3.796875 C 3.46875 -4.003906 3.40625 -4.171875 3.28125 -4.296875 C 3.15625 -4.421875 2.96875 -4.484375 2.71875 -4.484375 L 1.859375 -4.484375 Z M 1.859375 -3.09375 "/></g></g></g><g fill="#5271ff" fill-opacity="1"><g transform="translate(35.181848, 37.289753)"><g><path d="M 3.984375 -0.984375 L 1.890625 -0.984375 L 1.5625 0 L 0.125 0 L 2.15625 -5.609375 L 3.75 -5.609375 L 5.78125 0 L 4.328125 0 Z M 3.640625 -2.046875 L 2.9375 -4.109375 L 2.25 -2.046875 Z M 3.640625 -2.046875 "/></g></g></g><g fill="#5271ff" fill-opacity="1"><g transform="translate(41.077888, 37.289753)"><g/></g></g><g fill="#5271ff" fill-opacity="1"><g transform="translate(42.773904, 37.289753)"><g><path d="M 3.984375 -0.984375 L 1.890625 -0.984375 L 1.5625 0 L 0.125 0 L 2.15625 -5.609375 L 3.75 -5.609375 L 5.78125 0 L 4.328125 0 Z M 3.640625 -2.046875 L 2.9375 -4.109375 L 2.25 -2.046875 Z M 3.640625 -2.046875 "/></g></g></g><g fill="#5271ff" fill-opacity="1"><g transform="translate(48.669944, 37.289753)"><g><path d="M 5.515625 0 L 4.15625 0 L 1.859375 -3.46875 L 1.859375 0 L 0.5 0 L 0.5 -5.609375 L 1.859375 -5.609375 L 4.15625 -2.140625 L 4.15625 -5.609375 L 5.515625 -5.609375 Z M 5.515625 0 "/></g></g></g><g fill="#5271ff" fill-opacity="1"><g transform="translate(54.685989, 37.289753)"><g><path d="M 4.53125 -5.609375 L 4.53125 -4.515625 L 3.046875 -4.515625 L 3.046875 0 L 1.6875 0 L 1.6875 -4.515625 L 0.1875 -4.515625 L 0.1875 -5.609375 Z M 4.53125 -5.609375 "/></g></g></g><g fill="#5271ff" fill-opacity="1"><g transform="translate(59.41403, 37.289753)"><g><path d="M 3.359375 0 L 2.1875 -2.125 L 1.859375 -2.125 L 1.859375 0 L 0.5 0 L 0.5 -5.609375 L 2.796875 -5.609375 C 3.234375 -5.609375 3.609375 -5.53125 3.921875 -5.375 C 4.234375 -5.226562 4.46875 -5.019531 4.625 -4.75 C 4.78125 -4.476562 4.859375 -4.175781 4.859375 -3.84375 C 4.859375 -3.46875 4.75 -3.132812 4.53125 -2.84375 C 4.320312 -2.550781 4.015625 -2.34375 3.609375 -2.21875 L 4.90625 0 Z M 1.859375 -3.09375 L 2.71875 -3.09375 C 2.96875 -3.09375 3.15625 -3.148438 3.28125 -3.265625 C 3.40625 -3.390625 3.46875 -3.566406 3.46875 -3.796875 C 3.46875 -4.003906 3.40625 -4.171875 3.28125 -4.296875 C 3.15625 -4.421875 2.96875 -4.484375 2.71875 -4.484375 L 1.859375 -4.484375 Z M 1.859375 -3.09375 "/></g></g></g><g fill="#5271ff" fill-opacity="1"><g transform="translate(64.630067, 37.289753)"><g><path d="M 1.859375 -4.515625 L 1.859375 -3.390625 L 3.703125 -3.390625 L 3.703125 -2.328125 L 1.859375 -2.328125 L 1.859375 -1.09375 L 3.9375 -1.09375 L 3.9375 0 L 0.5 0 L 0.5 -5.609375 L 3.9375 -5.609375 L 3.9375 -4.515625 Z M 1.859375 -4.515625 "/></g></g></g><g fill="#5271ff" fill-opacity="1"><g transform="translate(68.958103, 37.289753)"><g><path d="M 3.984375 -0.984375 L 1.890625 -0.984375 L 1.5625 0 L 0.125 0 L 2.15625 -5.609375 L 3.75 -5.609375 L 5.78125 0 L 4.328125 0 Z M 3.640625 -2.046875 L 2.9375 -4.109375 L 2.25 -2.046875 Z M 3.640625 -2.046875 "/></g></g></g><g fill="#5271ff" fill-opacity="1"><g transform="translate(74.854143, 37.289753)"><g><path d="M 5.515625 0 L 4.15625 0 L 1.859375 -3.46875 L 1.859375 0 L 0.5 0 L 0.5 -5.609375 L 1.859375 -5.609375 L 4.15625 -2.140625 L 4.15625 -5.609375 L 5.515625 -5.609375 Z M 5.515625 0 "/></g></g></g><g fill="#5271ff" fill-opacity="1"><g transform="translate(80.870189, 37.289753)"><g/></g></g><g fill="#5271ff" fill-opacity="1"><g transform="translate(82.566204, 37.289753)"><g><path d="M 3.984375 -0.984375 L 1.890625 -0.984375 L 1.5625 0 L 0.125 0 L 2.15625 -5.609375 L 3.75 -5.609375 L 5.78125 0 L 4.328125 0 Z M 3.640625 -2.046875 L 2.9375 -4.109375 L 2.25 -2.046875 Z M 3.640625 -2.046875 "/></g></g></g><g fill="#5271ff" fill-opacity="1"><g transform="translate(88.462244, 37.289753)"><g><path d="M 5.515625 0 L 4.15625 0 L 1.859375 -3.46875 L 1.859375 0 L 0.5 0 L 0.5 -5.609375 L 1.859375 -5.609375 L 4.15625 -2.140625 L 4.15625 -5.609375 L 5.515625 -5.609375 Z M 5.515625 0 "/></g></g></g><g fill="#5271ff" fill-opacity="1"><g transform="translate(94.47829, 37.289753)"><g><path d="M 2.59375 -5.609375 C 3.1875 -5.609375 3.703125 -5.488281 4.140625 -5.25 C 4.585938 -5.019531 4.929688 -4.691406 5.171875 -4.265625 C 5.421875 -3.847656 5.546875 -3.363281 5.546875 -2.8125 C 5.546875 -2.257812 5.421875 -1.769531 5.171875 -1.34375 C 4.929688 -0.914062 4.585938 -0.582031 4.140625 -0.34375 C 3.703125 -0.113281 3.1875 0 2.59375 0 L 0.5 0 L 0.5 -5.609375 Z M 2.515625 -1.1875 C 3.023438 -1.1875 3.425781 -1.328125 3.71875 -1.609375 C 4.007812 -1.890625 4.15625 -2.289062 4.15625 -2.8125 C 4.15625 -3.320312 4.007812 -3.722656 3.71875 -4.015625 C 3.425781 -4.304688 3.023438 -4.453125 2.515625 -4.453125 L 1.859375 -4.453125 L 1.859375 -1.1875 Z M 2.515625 -1.1875 "/></g></g></g><g fill="#5271ff" fill-opacity="1"><g transform="translate(100.294334, 37.289753)"><g><path d="M 3.984375 -0.984375 L 1.890625 -0.984375 L 1.5625 0 L 0.125 0 L 2.15625 -5.609375 L 3.75 -5.609375 L 5.78125 0 L 4.328125 0 Z M 3.640625 -2.046875 L 2.9375 -4.109375 L 2.25 -2.046875 Z M 3.640625 -2.046875 "/></g></g></g></svg>