<svg xmlns="http://www.w3.org/2000/svg" xmlns:xlink="http://www.w3.org/1999/xlink" width="500" zoomAndPan="magnify" viewBox="0 0 375 374.999991" height="500" preserveAspectRatio="xMidYMid meet" version="1.0"><defs><clipPath id="85b1db8ce8"><path d="M 88 48.789062 L 303 48.789062 L 303 325.832031 L 88 325.832031 Z M 88 48.789062 " clip-rule="nonzero"/></clipPath><clipPath id="d6a8f48d45"><path d="M 75 55 L 234.523438 55 L 234.523438 225 L 75 225 Z M 75 55 " clip-rule="nonzero"/></clipPath></defs><g clip-path="url(#85b1db8ce8)"><path fill="#183e9f" d="M 280.992188 318.398438 L 271.617188 318.398438 L 271.617188 254.949219 C 271.617188 254.429688 271.519531 253.929688 271.320312 253.453125 C 271.125 252.972656 270.839844 252.550781 270.476562 252.1875 C 270.109375 251.820312 269.6875 251.539062 269.207031 251.339844 C 268.730469 251.140625 268.230469 251.042969 267.714844 251.042969 L 240.472656 251.042969 C 240.253906 245.167969 239.628906 243.011719 237.816406 241.234375 C 236.9375 240.355469 235.925781 239.675781 234.777344 239.199219 C 233.628906 238.722656 232.4375 238.484375 231.191406 238.484375 C 230.035156 238.480469 228.886719 238.386719 227.746094 238.195312 C 226.601562 238.007812 225.484375 237.726562 224.386719 237.355469 C 223.292969 236.984375 222.230469 236.523438 221.210938 235.980469 C 220.191406 235.4375 219.21875 234.8125 218.300781 234.109375 C 217.378906 233.40625 216.523438 232.632812 215.730469 231.789062 C 214.9375 230.949219 214.21875 230.046875 213.570312 229.085938 C 212.925781 228.125 212.359375 227.117188 211.878906 226.066406 C 211.398438 225.015625 211.003906 223.929688 210.699219 222.8125 C 210.394531 221.695312 210.183594 220.5625 210.0625 219.410156 C 209.941406 218.261719 209.917969 217.105469 209.984375 215.953125 C 210.054688 214.796875 210.214844 213.652344 210.46875 212.523438 C 210.722656 211.394531 211.070312 210.292969 211.503906 209.222656 C 211.9375 208.148438 212.457031 207.117188 213.058594 206.128906 C 213.660156 205.140625 214.339844 204.210938 215.097656 203.332031 C 215.851562 202.453125 216.671875 201.644531 217.558594 200.902344 C 218.445312 200.15625 219.386719 199.492188 220.382812 198.902344 C 220.382812 198.902344 222.070312 198.089844 222.601562 197.777344 C 238.941406 189.214844 252.71875 170.847656 262.183594 146.855469 C 265.207031 145.339844 268.109375 143.628906 270.898438 141.714844 C 273.683594 139.804688 276.324219 137.707031 278.820312 135.429688 C 281.316406 133.152344 283.648438 130.714844 285.808594 128.117188 C 287.96875 125.519531 289.941406 122.785156 291.726562 119.914062 C 293.507812 117.042969 295.085938 114.066406 296.460938 110.976562 C 297.832031 107.886719 298.988281 104.722656 299.921875 101.472656 C 300.859375 98.226562 301.566406 94.929688 302.046875 91.585938 C 302.53125 88.238281 302.78125 84.878906 302.796875 81.5 C 302.796875 80.90625 302.769531 80.3125 302.710938 79.722656 C 302.652344 79.132812 302.566406 78.546875 302.449219 77.964844 C 302.332031 77.382812 302.1875 76.804688 302.015625 76.238281 C 301.84375 75.671875 301.644531 75.113281 301.417969 74.5625 C 301.191406 74.015625 300.9375 73.480469 300.65625 72.957031 C 300.378906 72.433594 300.074219 71.925781 299.742188 71.429688 C 299.414062 70.9375 299.0625 70.460938 298.683594 70.003906 C 298.308594 69.542969 297.910156 69.105469 297.488281 68.6875 C 297.070312 68.265625 296.632812 67.867188 296.171875 67.492188 C 295.714844 67.113281 295.238281 66.761719 294.746094 66.433594 C 294.25 66.101562 293.742188 65.796875 293.21875 65.519531 C 292.695312 65.238281 292.160156 64.984375 291.613281 64.757812 C 291.0625 64.53125 290.503906 64.332031 289.9375 64.160156 C 289.371094 63.988281 288.792969 63.84375 288.210938 63.726562 C 287.628906 63.609375 287.042969 63.523438 286.453125 63.464844 C 285.863281 63.40625 285.269531 63.378906 284.675781 63.378906 L 276.148438 63.378906 L 276.148438 52.789062 C 276.148438 52.269531 276.050781 51.773438 275.851562 51.292969 C 275.652344 50.816406 275.371094 50.394531 275.003906 50.027344 C 274.640625 49.660156 274.214844 49.378906 273.738281 49.179688 C 273.257812 48.980469 272.761719 48.882812 272.242188 48.882812 L 119.601562 48.882812 C 119.082031 48.882812 118.585938 48.980469 118.105469 49.179688 C 117.628906 49.378906 117.207031 49.660156 116.839844 50.027344 C 116.472656 50.394531 116.191406 50.816406 115.992188 51.292969 C 115.796875 51.773438 115.695312 52.269531 115.695312 52.789062 L 115.695312 63.378906 L 106.324219 63.378906 C 105.730469 63.378906 105.140625 63.410156 104.550781 63.46875 C 103.960938 63.527344 103.375 63.617188 102.792969 63.730469 C 102.210938 63.847656 101.636719 63.992188 101.070312 64.167969 C 100.503906 64.339844 99.945312 64.539062 99.398438 64.765625 C 98.851562 64.996094 98.316406 65.25 97.792969 65.527344 C 97.273438 65.808594 96.765625 66.113281 96.273438 66.441406 C 95.78125 66.773438 95.304688 67.125 94.847656 67.503906 C 94.386719 67.878906 93.949219 68.277344 93.53125 68.695312 C 93.113281 69.117188 92.714844 69.554688 92.339844 70.015625 C 91.964844 70.472656 91.613281 70.949219 91.28125 71.441406 C 90.953125 71.933594 90.648438 72.441406 90.371094 72.964844 C 90.089844 73.488281 89.839844 74.023438 89.613281 74.570312 C 89.386719 75.121094 89.1875 75.675781 89.015625 76.242188 C 88.84375 76.8125 88.699219 77.386719 88.582031 77.96875 C 88.46875 78.546875 88.378906 79.132812 88.324219 79.722656 C 88.265625 80.3125 88.234375 80.90625 88.234375 81.5 C 88.242188 83.195312 88.304688 84.890625 88.429688 86.582031 C 88.554688 88.273438 88.734375 89.960938 88.976562 91.636719 C 89.214844 93.316406 89.515625 94.988281 89.871094 96.644531 C 90.226562 98.304688 90.640625 99.949219 91.109375 101.578125 C 91.578125 103.210938 92.105469 104.820312 92.683594 106.414062 C 93.265625 108.007812 93.902344 109.582031 94.59375 111.132812 C 95.28125 112.679688 96.027344 114.207031 96.820312 115.703125 C 97.617188 117.203125 98.464844 118.671875 99.363281 120.109375 C 100.257812 121.550781 101.207031 122.957031 102.199219 124.332031 C 103.195312 125.707031 104.234375 127.042969 105.324219 128.347656 C 106.410156 129.648438 107.542969 130.910156 108.71875 132.136719 C 109.894531 133.359375 111.109375 134.542969 112.367188 135.679688 C 113.621094 136.820312 114.917969 137.914062 116.25 138.964844 C 117.582031 140.015625 118.949219 141.019531 120.351562 141.972656 C 121.753906 142.929688 123.1875 143.835938 124.652344 144.691406 C 126.117188 145.546875 127.609375 146.351562 129.128906 147.105469 C 129.289062 147.179688 129.457031 147.242188 129.628906 147.292969 C 139 171.066406 152.777344 189.277344 168.960938 197.777344 L 171.085938 198.871094 C 172.09375 199.449219 173.050781 200.105469 173.953125 200.839844 C 174.851562 201.574219 175.6875 202.378906 176.457031 203.253906 C 177.226562 204.125 177.921875 205.054688 178.539062 206.039062 C 179.152344 207.027344 179.6875 208.058594 180.132812 209.132812 C 180.582031 210.203125 180.9375 211.308594 181.203125 212.441406 C 181.46875 213.574219 181.640625 214.71875 181.71875 215.878906 C 181.796875 217.042969 181.78125 218.199219 181.667969 219.359375 C 181.554688 220.515625 181.347656 221.65625 181.050781 222.78125 C 180.75 223.90625 180.359375 224.996094 179.878906 226.058594 C 179.402344 227.117188 178.835938 228.128906 178.191406 229.097656 C 177.546875 230.066406 176.824219 230.972656 176.03125 231.824219 C 175.234375 232.671875 174.375 233.449219 173.453125 234.160156 C 172.53125 234.867188 171.554688 235.496094 170.527344 236.042969 C 169.503906 236.589844 168.4375 237.050781 167.335938 237.421875 C 166.234375 237.796875 165.109375 238.078125 163.960938 238.265625 C 162.8125 238.453125 161.660156 238.546875 160.496094 238.546875 C 159.253906 238.546875 158.058594 238.785156 156.910156 239.261719 C 155.761719 239.738281 154.75 240.417969 153.871094 241.296875 C 152.089844 243.074219 151.433594 245.230469 151.214844 251.105469 L 123.601562 251.105469 C 123.082031 251.105469 122.582031 251.203125 122.105469 251.402344 C 121.628906 251.601562 121.203125 251.882812 120.839844 252.25 C 120.472656 252.613281 120.191406 253.035156 119.992188 253.515625 C 119.792969 253.992188 119.695312 254.492188 119.695312 255.011719 L 119.695312 318.398438 L 110.167969 318.398438 C 109.648438 318.398438 109.148438 318.496094 108.671875 318.695312 C 108.195312 318.894531 107.769531 319.175781 107.40625 319.542969 C 107.039062 319.90625 106.757812 320.328125 106.558594 320.808594 C 106.359375 321.285156 106.261719 321.785156 106.261719 322.300781 C 106.261719 322.820312 106.359375 323.320312 106.558594 323.796875 C 106.757812 324.273438 107.039062 324.699219 107.40625 325.0625 C 107.769531 325.429688 108.195312 325.710938 108.671875 325.910156 C 109.148438 326.109375 109.648438 326.207031 110.167969 326.207031 L 280.992188 326.207031 C 281.507812 326.207031 282.007812 326.109375 282.484375 325.910156 C 282.964844 325.710938 283.386719 325.429688 283.753906 325.0625 C 284.117188 324.699219 284.402344 324.273438 284.597656 323.796875 C 284.796875 323.320312 284.894531 322.820312 284.894531 322.300781 C 284.894531 321.785156 284.796875 321.285156 284.597656 320.808594 C 284.402344 320.328125 284.117188 319.90625 283.753906 319.542969 C 283.386719 319.175781 282.964844 318.894531 282.484375 318.695312 C 282.007812 318.496094 281.507812 318.398438 280.992188 318.398438 Z M 291.925781 74.21875 C 292.914062 75.175781 293.675781 76.28125 294.21875 77.542969 C 294.761719 78.808594 295.039062 80.125 295.050781 81.5 C 295.039062 84.152344 294.867188 86.792969 294.53125 89.421875 C 294.199219 92.054688 293.710938 94.65625 293.0625 97.226562 C 292.414062 99.800781 291.613281 102.324219 290.660156 104.796875 C 289.707031 107.273438 288.605469 109.679688 287.359375 112.023438 C 286.113281 114.363281 284.730469 116.621094 283.210938 118.792969 C 281.691406 120.96875 280.046875 123.042969 278.277344 125.015625 C 276.503906 126.988281 274.621094 128.851562 272.625 130.59375 C 270.628906 132.339844 268.53125 133.960938 266.339844 135.453125 C 272.792969 114.515625 276.050781 93.09375 276.117188 71.1875 L 284.644531 71.1875 C 286.015625 71.179688 287.328125 71.441406 288.59375 71.964844 C 289.855469 72.492188 290.96875 73.242188 291.925781 74.21875 Z M 242.628906 118.425781 C 245.082031 110.503906 246.808594 102.429688 247.8125 94.199219 C 248.8125 85.96875 249.074219 77.714844 248.59375 69.4375 C 248.539062 68.925781 248.582031 68.421875 248.722656 67.925781 C 248.867188 67.429688 249.101562 66.976562 249.421875 66.574219 C 249.742188 66.167969 250.132812 65.84375 250.582031 65.59375 C 251.035156 65.339844 251.515625 65.1875 252.03125 65.128906 C 252.285156 65.09375 252.542969 65.089844 252.796875 65.105469 C 253.054688 65.125 253.304688 65.171875 253.554688 65.238281 C 253.800781 65.308594 254.039062 65.402344 254.269531 65.519531 C 254.496094 65.636719 254.710938 65.773438 254.914062 65.933594 C 255.113281 66.09375 255.296875 66.273438 255.460938 66.472656 C 255.628906 66.667969 255.769531 66.878906 255.894531 67.105469 C 256.015625 67.332031 256.117188 67.566406 256.191406 67.8125 C 256.265625 68.058594 256.316406 68.308594 256.34375 68.566406 C 256.914062 77.363281 256.675781 86.140625 255.625 94.894531 C 254.574219 103.648438 252.730469 112.230469 250.09375 120.644531 C 249.972656 121.046875 249.792969 121.421875 249.550781 121.769531 C 249.308594 122.113281 249.019531 122.414062 248.683594 122.667969 C 248.347656 122.921875 247.976562 123.113281 247.578125 123.25 C 247.175781 123.382812 246.765625 123.453125 246.34375 123.453125 C 245.972656 123.445312 245.609375 123.394531 245.25 123.296875 C 244.757812 123.144531 244.3125 122.902344 243.914062 122.570312 C 243.515625 122.242188 243.195312 121.851562 242.949219 121.394531 C 242.703125 120.941406 242.554688 120.457031 242.5 119.941406 C 242.441406 119.425781 242.484375 118.921875 242.628906 118.425781 Z M 242.441406 127.953125 C 242.957031 127.957031 243.453125 128.058594 243.929688 128.261719 C 244.40625 128.464844 244.824219 128.746094 245.1875 129.117188 C 245.550781 129.484375 245.832031 129.90625 246.027344 130.386719 C 246.21875 130.863281 246.316406 131.363281 246.3125 131.878906 C 246.3125 132.394531 246.210938 132.894531 246.007812 133.371094 C 245.808594 133.847656 245.527344 134.265625 245.160156 134.628906 C 244.792969 134.996094 244.371094 135.273438 243.890625 135.472656 C 243.414062 135.667969 242.914062 135.765625 242.398438 135.761719 C 241.882812 135.761719 241.382812 135.660156 240.90625 135.464844 C 240.429688 135.265625 240.007812 134.980469 239.644531 134.617188 C 239.277344 134.25 238.996094 133.828125 238.800781 133.351562 C 238.601562 132.871094 238.503906 132.375 238.503906 131.859375 C 238.503906 131.597656 238.527344 131.34375 238.578125 131.089844 C 238.632812 130.835938 238.707031 130.589844 238.808594 130.347656 C 238.90625 130.109375 239.03125 129.882812 239.175781 129.667969 C 239.320312 129.453125 239.484375 129.257812 239.667969 129.074219 C 239.855469 128.894531 240.054688 128.730469 240.273438 128.589844 C 240.488281 128.449219 240.71875 128.328125 240.957031 128.234375 C 241.199219 128.136719 241.445312 128.066406 241.699219 128.019531 C 241.957031 127.96875 242.210938 127.949219 242.472656 127.953125 Z M 96.140625 81.5 C 96.140625 80.824219 96.207031 80.15625 96.339844 79.492188 C 96.472656 78.832031 96.671875 78.1875 96.929688 77.566406 C 97.1875 76.941406 97.503906 76.347656 97.878906 75.789062 C 98.253906 75.226562 98.679688 74.707031 99.15625 74.226562 C 99.632812 73.75 100.152344 73.324219 100.710938 72.945312 C 101.273438 72.570312 101.863281 72.25 102.488281 71.992188 C 103.109375 71.730469 103.75 71.53125 104.414062 71.398438 C 105.074219 71.261719 105.742188 71.191406 106.417969 71.1875 L 115.789062 71.1875 C 115.902344 93.296875 119.246094 114.90625 125.816406 136.011719 C 123.5625 134.535156 121.402344 132.925781 119.34375 131.183594 C 117.285156 129.441406 115.34375 127.578125 113.515625 125.59375 C 111.6875 123.609375 109.984375 121.523438 108.414062 119.332031 C 106.84375 117.136719 105.414062 114.855469 104.125 112.488281 C 102.832031 110.117188 101.695312 107.679688 100.707031 105.167969 C 99.71875 102.660156 98.886719 100.097656 98.214844 97.488281 C 97.539062 94.875 97.03125 92.230469 96.683594 89.558594 C 96.335938 86.882812 96.15625 84.195312 96.140625 81.5 Z M 168.304688 93.464844 L 162.277344 89.089844 C 161.9375 88.855469 161.574219 88.679688 161.183594 88.554688 C 160.792969 88.433594 160.390625 88.371094 159.980469 88.371094 C 159.570312 88.371094 159.167969 88.433594 158.777344 88.554688 C 158.386719 88.679688 158.019531 88.855469 157.683594 89.089844 L 151.683594 93.464844 L 151.683594 56.691406 L 168.304688 56.691406 Z M 127.378906 318.398438 L 127.378906 258.851562 L 263.652344 258.851562 L 263.652344 318.398438 Z M 127.378906 318.398438 " fill-opacity="1" fill-rule="nonzero"/></g><path fill="#183e9f" d="M 154.246094 273.347656 L 238.285156 273.347656 C 238.804688 273.347656 239.300781 273.445312 239.78125 273.644531 C 240.257812 273.84375 240.679688 274.125 241.046875 274.492188 C 241.414062 274.859375 241.695312 275.28125 241.894531 275.757812 C 242.089844 276.238281 242.191406 276.734375 242.191406 277.253906 L 242.191406 300.027344 C 242.191406 300.546875 242.089844 301.042969 241.894531 301.523438 C 241.695312 302 241.414062 302.421875 241.046875 302.789062 C 240.679688 303.15625 240.257812 303.4375 239.78125 303.636719 C 239.300781 303.832031 238.804688 303.933594 238.285156 303.933594 L 154.246094 303.933594 C 153.730469 303.933594 153.230469 303.832031 152.753906 303.636719 C 152.273438 303.4375 151.851562 303.15625 151.484375 302.789062 C 151.121094 302.421875 150.835938 302 150.640625 301.523438 C 150.441406 301.042969 150.34375 300.546875 150.34375 300.027344 L 150.34375 277.253906 C 150.34375 276.734375 150.441406 276.238281 150.640625 275.757812 C 150.835938 275.28125 151.121094 274.859375 151.484375 274.492188 C 151.851562 274.125 152.273438 273.84375 152.753906 273.644531 C 153.230469 273.445312 153.730469 273.347656 154.246094 273.347656 Z M 154.246094 273.347656 " fill-opacity="1" fill-rule="nonzero"/><g clip-path="url(#d6a8f48d45)"><path fill="#fff7f7" d="M 183.308594 214.339844 L 183.308594 175.035156 C 183.308594 169.804688 187.546875 165.566406 192.777344 165.566406 L 225.058594 165.566406 C 230.289062 165.566406 234.527344 161.328125 234.527344 156.097656 L 234.527344 117.566406 C 234.527344 112.335938 230.289062 108.097656 225.058594 108.097656 C 225.058594 108.097656 221.472656 108.097656 216.6875 108.097656 C 211.90625 108.097656 205.929688 108.097656 201.144531 108.097656 C 196.039062 107.257812 188.863281 107.257812 186.46875 104.867188 C 176.902344 90.515625 196.039062 54.632812 166.34375 55.867188 C 162.0625 55.847656 156.710938 55.839844 152.429688 55.839844 C 148.144531 55.839844 144.933594 55.839844 144.933594 55.839844 C 139.703125 55.839844 135.464844 60.082031 135.464844 65.308594 L 135.464844 98.628906 C 135.464844 101.242188 134.40625 103.609375 132.691406 105.324219 C 130.976562 107.035156 128.609375 108.105469 125.996094 108.148438 C 109.921875 114.4375 71.648438 100.082031 75.933594 127.636719 C 75.933594 133.261719 75.933594 140.398438 75.933594 146.105469 C 75.933594 151.816406 75.933594 156.097656 75.933594 156.097656 C 75.933594 161.328125 80.175781 165.566406 85.40625 165.566406 C 85.40625 165.566406 103.445312 165.566406 115.472656 165.566406 C 118.476562 165.566406 121.109375 165.566406 122.988281 165.566406 C 126.667969 164.671875 131.449219 167.0625 133.84375 169.457031 C 143.414062 188.59375 124.273438 231.652344 159.386719 223.8125 C 161.792969 223.8125 164.203125 223.8125 166.34375 223.8125 C 170.625 223.8125 173.839844 223.8125 173.839844 223.8125 C 179.066406 223.8125 183.308594 219.570312 183.308594 214.339844 Z M 183.308594 214.339844 " fill-opacity="1" fill-rule="nonzero"/></g><path fill="#183e9f" d="M 225.769531 148.011719 C 226.539062 150.355469 226.164062 152.988281 224.671875 154.976562 C 223.132812 157.03125 220.605469 157.988281 218.179688 158.519531 C 215.265625 159.15625 212.234375 159.355469 209.265625 159.582031 C 205.9375 159.832031 202.605469 159.972656 199.269531 160 C 195.472656 160.03125 191.675781 159.914062 187.886719 159.65625 C 186.378906 159.554688 186.382812 161.90625 187.886719 162.007812 C 195.105469 162.496094 202.359375 162.46875 209.574219 161.90625 C 212.804688 161.65625 216.121094 161.4375 219.28125 160.671875 C 222.039062 160.003906 224.726562 158.734375 226.488281 156.441406 C 228.441406 153.902344 229.03125 150.429688 228.035156 147.386719 C 227.566406 145.957031 225.296875 146.570312 225.769531 148.011719 Z M 225.769531 148.011719 " fill-opacity="1" fill-rule="nonzero"/><path fill="#183e9f" d="M 211.679688 153.371094 C 205.582031 154.269531 199.394531 154.503906 193.242188 154.128906 C 191.730469 154.035156 191.738281 156.386719 193.242188 156.476562 C 199.613281 156.867188 205.988281 156.566406 212.304688 155.636719 C 212.929688 155.542969 213.28125 154.75 213.125 154.191406 C 212.9375 153.519531 212.3125 153.277344 211.679688 153.371094 Z M 211.679688 153.371094 " fill-opacity="1" fill-rule="nonzero"/><path fill="#183e9f" d="M 140.472656 84.539062 C 139.285156 91.292969 141.097656 98.214844 139.664062 104.921875 C 139.089844 107.617188 138.015625 110.273438 136.019531 112.234375 C 133.855469 114.359375 130.863281 115.226562 127.929688 115.640625 C 123.960938 116.199219 119.867188 116.21875 115.867188 116.054688 C 114.359375 115.992188 114.359375 118.339844 115.867188 118.402344 C 119.6875 118.558594 123.546875 118.507812 127.34375 118.0625 C 130.589844 117.679688 133.875 116.914062 136.519531 114.890625 C 141.617188 110.984375 142.636719 104.09375 142.546875 98.082031 C 142.484375 93.78125 141.988281 89.429688 142.738281 85.164062 C 142.996094 83.6875 140.734375 83.050781 140.472656 84.539062 Z M 140.472656 84.539062 " fill-opacity="1" fill-rule="nonzero"/><path fill="#183e9f" d="M 144.097656 111.023438 C 144.917969 115.652344 140.753906 119.257812 136.765625 120.496094 C 131.707031 122.066406 126.328125 121.230469 121.128906 121.535156 C 119.628906 121.625 119.617188 123.972656 121.128906 123.886719 C 126.949219 123.542969 133.070312 124.550781 138.632812 122.320312 C 143.433594 120.394531 147.328125 115.835938 146.359375 110.398438 C 146.097656 108.914062 143.835938 109.542969 144.097656 111.023438 Z M 144.097656 111.023438 " fill-opacity="1" fill-rule="nonzero"/></svg>