<svg xmlns="http://www.w3.org/2000/svg" xmlns:xlink="http://www.w3.org/1999/xlink" width="500" zoomAndPan="magnify" viewBox="0 0 375 374.999991" height="500" preserveAspectRatio="xMidYMid meet" version="1.0"><defs><g/><clipPath id="01561af019"><path d="M 114 30.75 L 272.902344 30.75 L 272.902344 235.929688 L 114 235.929688 Z M 114 30.75 " clip-rule="nonzero"/></clipPath><clipPath id="4a33887183"><path d="M 104 35 L 222.296875 35 L 222.296875 161 L 104 161 Z M 104 35 " clip-rule="nonzero"/></clipPath></defs><g fill="#0000ff" fill-opacity="1"><g transform="translate(36.696597, 297.705051)"><g><path d="M 42.3125 -0.046875 L 35.046875 -0.046875 L 35.046875 -26.75 C 35.046875 -27.25 35.132812 -28.539062 35.3125 -30.625 C 35.207031 -30.34375 35.070312 -29.941406 34.90625 -29.421875 C 34.75 -28.898438 34.597656 -28.421875 34.453125 -27.984375 C 34.304688 -27.554688 34.160156 -27.144531 34.015625 -26.75 L 24.390625 0 L 20.40625 0 L 10.5 -26.75 C 10.351562 -27.144531 10.207031 -27.554688 10.0625 -27.984375 C 9.914062 -28.421875 9.757812 -28.898438 9.59375 -29.421875 C 9.4375 -29.941406 9.304688 -30.34375 9.203125 -30.625 C 9.203125 -30.300781 9.242188 -29.691406 9.328125 -28.796875 C 9.421875 -27.898438 9.46875 -27.21875 9.46875 -26.75 L 9.46875 -0.046875 L 3.609375 -0.046875 L 3.609375 -36.125 C 3.609375 -36.15625 3.546875 -36.421875 3.421875 -36.921875 C 3.296875 -37.429688 3.171875 -37.953125 3.046875 -38.484375 C 2.921875 -39.023438 2.859375 -39.332031 2.859375 -39.40625 L 13.1875 -39.40625 L 21.578125 -16.796875 C 21.972656 -15.710938 22.492188 -13.539062 23.140625 -10.28125 C 23.210938 -10.53125 23.398438 -11.4375 23.703125 -13 C 24.015625 -14.5625 24.3125 -15.753906 24.59375 -16.578125 L 32.828125 -39.40625 L 42.3125 -39.40625 Z M 42.3125 -0.046875 "/></g></g></g><g fill="#0000ff" fill-opacity="1"><g transform="translate(81.802728, 297.705051)"><g><path d="M 27.5625 0 L 3.609375 0 L 3.609375 -36.125 L 2.796875 -39.40625 L 27.5625 -39.40625 L 27.5625 -34.078125 L 10.984375 -34.078125 L 10.984375 -22.9375 L 23.6875 -22.9375 L 23.6875 -17.609375 L 10.984375 -17.609375 L 10.984375 -5.328125 L 27.5625 -5.328125 Z M 27.5625 0 "/></g></g></g><g fill="#0000ff" fill-opacity="1"><g transform="translate(111.353162, 297.705051)"><g><path d="M 36.609375 -19.640625 C 36.609375 -13.617188 34.757812 -8.773438 31.0625 -5.109375 C 27.644531 -1.703125 23.160156 0 17.609375 0 L 3.609375 0 L 3.609375 -36.125 C 3.609375 -36.15625 3.472656 -36.679688 3.203125 -37.703125 C 2.929688 -38.722656 2.78125 -39.289062 2.75 -39.40625 L 17.65625 -39.40625 C 23.570312 -39.40625 28.207031 -37.597656 31.5625 -33.984375 C 34.925781 -30.378906 36.609375 -25.597656 36.609375 -19.640625 Z M 28.640625 -19.4375 C 28.640625 -22.019531 28.28125 -24.367188 27.5625 -26.484375 C 26.84375 -28.597656 25.59375 -30.390625 23.8125 -31.859375 C 22.039062 -33.335938 19.828125 -34.078125 17.171875 -34.078125 L 11.03125 -34.078125 L 11.03125 -5.328125 L 17.28125 -5.328125 C 19.25 -5.328125 20.988281 -5.710938 22.5 -6.484375 C 24.007812 -7.253906 25.191406 -8.3125 26.046875 -9.65625 C 26.910156 -11.007812 27.554688 -12.5 27.984375 -14.125 C 28.421875 -15.757812 28.640625 -17.53125 28.640625 -19.4375 Z M 28.640625 -19.4375 "/></g></g></g><g fill="#0000ff" fill-opacity="1"><g transform="translate(148.977491, 297.705051)"><g><path d="M 10.984375 0 L 3.546875 0 L 3.546875 -36.125 C 3.546875 -36.15625 3.484375 -36.421875 3.359375 -36.921875 C 3.234375 -37.429688 3.109375 -37.953125 2.984375 -38.484375 C 2.859375 -39.023438 2.796875 -39.332031 2.796875 -39.40625 L 10.984375 -39.40625 Z M 10.984375 0 "/></g></g></g><g fill="#0000ff" fill-opacity="1"><g transform="translate(163.402846, 297.705051)"><g><path d="M 63.734375 8.78125 C 60.179688 10 57.664062 10.773438 56.1875 11.109375 C 54.71875 11.453125 52.765625 11.625 50.328125 11.625 C 48.785156 11.625 47.097656 11.425781 45.265625 11.03125 C 43.441406 10.632812 41.425781 10.023438 39.21875 9.203125 C 37.007812 8.378906 35.1875 7.660156 33.75 7.046875 C 32.3125 6.441406 30.335938 5.5625 27.828125 4.40625 C 25.316406 3.257812 23.738281 2.546875 23.09375 2.265625 C 22.019531 1.796875 19.722656 1.1875 16.203125 0.4375 C 10.992188 -0.675781 7.160156 -3.023438 4.703125 -6.609375 C 2.242188 -10.203125 1.015625 -14.53125 1.015625 -19.59375 C 1.015625 -22.28125 1.410156 -24.832031 2.203125 -27.25 C 2.992188 -29.675781 4.140625 -31.847656 5.640625 -33.765625 C 7.148438 -35.691406 9.125 -37.21875 11.5625 -38.34375 C 14.007812 -39.476562 16.773438 -40.046875 19.859375 -40.046875 C 22.941406 -40.046875 25.703125 -39.476562 28.140625 -38.34375 C 30.585938 -37.21875 32.5625 -35.691406 34.0625 -33.765625 C 35.570312 -31.847656 36.710938 -29.675781 37.484375 -27.25 C 38.265625 -24.832031 38.65625 -22.28125 38.65625 -19.59375 C 38.65625 -15.820312 37.863281 -12.3125 36.28125 -9.0625 C 34.695312 -5.820312 32.222656 -3.285156 28.859375 -1.453125 L 29.5 -1.125 C 32.40625 0.269531 34.804688 1.394531 36.703125 2.25 C 38.609375 3.113281 41.175781 4.046875 44.40625 5.046875 C 47.632812 6.054688 50.34375 6.5625 52.53125 6.5625 C 54.976562 6.5625 58.300781 5.9375 62.5 4.6875 Z M 30.734375 -19.59375 C 30.734375 -22.25 30.390625 -24.679688 29.703125 -26.890625 C 29.023438 -29.097656 27.84375 -30.976562 26.15625 -32.53125 C 24.46875 -34.09375 22.367188 -34.875 19.859375 -34.875 C 17.390625 -34.875 15.300781 -34.09375 13.59375 -32.53125 C 11.882812 -30.976562 10.6875 -29.085938 10 -26.859375 C 9.320312 -24.628906 8.984375 -22.191406 8.984375 -19.546875 C 8.984375 -16.921875 9.320312 -14.519531 10 -12.34375 C 10.6875 -10.175781 11.882812 -8.335938 13.59375 -6.828125 C 15.300781 -5.328125 17.390625 -4.578125 19.859375 -4.578125 C 23.523438 -4.578125 26.253906 -6.035156 28.046875 -8.953125 C 29.835938 -11.878906 30.734375 -15.425781 30.734375 -19.59375 Z M 30.734375 -19.59375 "/></g></g></g><g fill="#0000ff" fill-opacity="1"><g transform="translate(203.072563, 297.705051)"><g><path d="M 34.671875 -14.96875 C 34.671875 -9.613281 33.257812 -5.679688 30.4375 -3.171875 C 27.625 -0.660156 23.863281 0.59375 19.15625 0.59375 C 14.175781 0.59375 10.347656 -0.738281 7.671875 -3.40625 C 4.992188 -6.082031 3.65625 -9.9375 3.65625 -14.96875 L 3.65625 -36.171875 L 2.796875 -39.40625 L 11.25 -39.40625 L 11.25 -13.1875 C 11.25 -10.570312 12.035156 -8.472656 13.609375 -6.890625 C 15.191406 -5.304688 17.296875 -4.515625 19.921875 -4.515625 C 22.578125 -4.515625 24.679688 -5.285156 26.234375 -6.828125 C 27.796875 -8.378906 28.578125 -10.5 28.578125 -13.1875 L 28.578125 -39.40625 L 34.671875 -39.40625 Z M 34.671875 -14.96875 "/></g></g></g><g fill="#0000ff" fill-opacity="1"><g transform="translate(241.127498, 297.705051)"><g><path d="M 27.5625 0 L 3.609375 0 L 3.609375 -36.125 L 2.796875 -39.40625 L 27.5625 -39.40625 L 27.5625 -34.078125 L 10.984375 -34.078125 L 10.984375 -22.9375 L 23.6875 -22.9375 L 23.6875 -17.609375 L 10.984375 -17.609375 L 10.984375 -5.328125 L 27.5625 -5.328125 Z M 27.5625 0 "/></g></g></g><g fill="#0000ff" fill-opacity="1"><g transform="translate(270.67792, 297.705051)"><g><path d="M 34.671875 -14.96875 C 34.671875 -9.613281 33.257812 -5.679688 30.4375 -3.171875 C 27.625 -0.660156 23.863281 0.59375 19.15625 0.59375 C 14.175781 0.59375 10.347656 -0.738281 7.671875 -3.40625 C 4.992188 -6.082031 3.65625 -9.9375 3.65625 -14.96875 L 3.65625 -36.171875 L 2.796875 -39.40625 L 11.25 -39.40625 L 11.25 -13.1875 C 11.25 -10.570312 12.035156 -8.472656 13.609375 -6.890625 C 15.191406 -5.304688 17.296875 -4.515625 19.921875 -4.515625 C 22.578125 -4.515625 24.679688 -5.285156 26.234375 -6.828125 C 27.796875 -8.378906 28.578125 -10.5 28.578125 -13.1875 L 28.578125 -39.40625 L 34.671875 -39.40625 Z M 34.671875 -14.96875 "/></g></g></g><g fill="#0000ff" fill-opacity="1"><g transform="translate(308.732856, 297.705051)"><g><path d="M 27.5625 0 L 3.609375 0 L 3.609375 -36.125 L 2.796875 -39.40625 L 27.5625 -39.40625 L 27.5625 -34.078125 L 10.984375 -34.078125 L 10.984375 -22.9375 L 23.6875 -22.9375 L 23.6875 -17.609375 L 10.984375 -17.609375 L 10.984375 -5.328125 L 27.5625 -5.328125 Z M 27.5625 0 "/></g></g></g><g clip-path="url(#01561af019)"><path fill="#0000ff" d="M 256.691406 230.273438 L 249.757812 230.273438 L 249.757812 183.316406 C 249.757812 182.933594 249.683594 182.566406 249.535156 182.210938 C 249.390625 181.859375 249.179688 181.546875 248.910156 181.273438 C 248.640625 181.003906 248.328125 180.792969 247.972656 180.648438 C 247.617188 180.5 247.25 180.429688 246.867188 180.429688 L 226.707031 180.429688 C 226.542969 176.082031 226.082031 174.484375 224.742188 173.167969 C 224.089844 172.519531 223.339844 172.015625 222.492188 171.664062 C 221.644531 171.3125 220.757812 171.132812 219.839844 171.132812 C 218.980469 171.132812 218.132812 171.0625 217.285156 170.921875 C 216.441406 170.78125 215.613281 170.574219 214.800781 170.300781 C 213.992188 170.023438 213.207031 169.683594 212.453125 169.28125 C 211.695312 168.878906 210.976562 168.417969 210.296875 167.894531 C 209.617188 167.375 208.984375 166.804688 208.394531 166.179688 C 207.808594 165.554688 207.277344 164.890625 206.796875 164.179688 C 206.320312 163.46875 205.902344 162.722656 205.546875 161.945312 C 205.1875 161.164062 204.898438 160.363281 204.671875 159.535156 C 204.445312 158.710938 204.289062 157.871094 204.199219 157.019531 C 204.113281 156.167969 204.09375 155.3125 204.144531 154.457031 C 204.195312 153.601562 204.3125 152.757812 204.503906 151.921875 C 204.691406 151.085938 204.945312 150.273438 205.265625 149.476562 C 205.589844 148.683594 205.972656 147.921875 206.417969 147.191406 C 206.863281 146.460938 207.367188 145.769531 207.925781 145.121094 C 208.484375 144.46875 209.09375 143.871094 209.75 143.320312 C 210.40625 142.769531 211.101562 142.277344 211.839844 141.839844 C 211.839844 141.839844 213.089844 141.238281 213.480469 141.007812 C 225.574219 134.671875 235.769531 121.078125 242.773438 103.324219 C 245.011719 102.203125 247.160156 100.9375 249.222656 99.519531 C 251.285156 98.105469 253.238281 96.554688 255.085938 94.867188 C 256.933594 93.183594 258.65625 91.378906 260.257812 89.457031 C 261.855469 87.535156 263.316406 85.511719 264.636719 83.386719 C 265.957031 81.261719 267.125 79.054688 268.140625 76.769531 C 269.15625 74.484375 270.011719 72.140625 270.703125 69.738281 C 271.394531 67.335938 271.921875 64.894531 272.277344 62.421875 C 272.632812 59.945312 272.816406 57.457031 272.832031 54.957031 C 272.832031 54.074219 272.746094 53.203125 272.574219 52.339844 C 272.402344 51.476562 272.144531 50.636719 271.808594 49.824219 C 271.472656 49.011719 271.058594 48.238281 270.570312 47.503906 C 270.082031 46.773438 269.523438 46.097656 268.902344 45.472656 C 268.28125 44.851562 267.601562 44.292969 266.871094 43.804688 C 266.136719 43.316406 265.367188 42.902344 264.550781 42.566406 C 263.738281 42.230469 262.898438 41.976562 262.035156 41.804688 C 261.171875 41.632812 260.300781 41.546875 259.421875 41.546875 L 253.109375 41.546875 L 253.109375 33.707031 C 253.109375 33.324219 253.035156 32.957031 252.890625 32.601562 C 252.742188 32.246094 252.535156 31.933594 252.261719 31.664062 C 251.992188 31.394531 251.679688 31.183594 251.324219 31.039062 C 250.96875 30.890625 250.601562 30.816406 250.21875 30.816406 L 137.253906 30.816406 C 136.871094 30.816406 136.503906 30.890625 136.148438 31.039062 C 135.792969 31.183594 135.480469 31.394531 135.210938 31.664062 C 134.941406 31.933594 134.730469 32.246094 134.585938 32.601562 C 134.4375 32.957031 134.363281 33.324219 134.363281 33.707031 L 134.363281 41.546875 L 127.429688 41.546875 C 126.546875 41.546875 125.675781 41.632812 124.816406 41.808594 C 123.953125 41.980469 123.117188 42.234375 122.304688 42.574219 C 121.492188 42.910156 120.71875 43.324219 119.988281 43.8125 C 119.257812 44.304688 118.582031 44.859375 117.960938 45.480469 C 117.339844 46.105469 116.785156 46.78125 116.296875 47.511719 C 115.808594 48.242188 115.394531 49.015625 115.058594 49.828125 C 114.722656 50.640625 114.46875 51.480469 114.296875 52.34375 C 114.128906 53.203125 114.042969 54.074219 114.042969 54.957031 C 114.050781 57.46875 114.234375 59.972656 114.589844 62.460938 C 114.945312 64.949219 115.472656 67.402344 116.167969 69.816406 C 116.863281 72.234375 117.722656 74.589844 118.746094 76.886719 C 119.769531 79.183594 120.945312 81.398438 122.277344 83.53125 C 123.605469 85.664062 125.078125 87.695312 126.6875 89.625 C 128.300781 91.554688 130.035156 93.363281 131.898438 95.054688 C 133.761719 96.742188 135.730469 98.292969 137.808594 99.710938 C 139.886719 101.125 142.050781 102.390625 144.304688 103.507812 C 144.425781 103.5625 144.546875 103.609375 144.675781 103.644531 C 151.613281 121.242188 161.808594 134.71875 173.785156 141.007812 L 175.355469 141.816406 C 176.101562 142.246094 176.808594 142.730469 177.476562 143.277344 C 178.144531 143.820312 178.761719 144.414062 179.332031 145.058594 C 179.902344 145.707031 180.414062 146.394531 180.871094 147.125 C 181.328125 147.855469 181.71875 148.617188 182.050781 149.410156 C 182.382812 150.207031 182.648438 151.023438 182.84375 151.859375 C 183.039062 152.699219 183.167969 153.546875 183.226562 154.40625 C 183.285156 155.265625 183.269531 156.121094 183.1875 156.980469 C 183.105469 157.835938 182.953125 158.679688 182.730469 159.511719 C 182.507812 160.34375 182.21875 161.152344 181.863281 161.9375 C 181.507812 162.722656 181.09375 163.472656 180.613281 164.1875 C 180.136719 164.902344 179.605469 165.574219 179.015625 166.203125 C 178.425781 166.832031 177.789062 167.410156 177.109375 167.933594 C 176.425781 168.457031 175.703125 168.921875 174.945312 169.328125 C 174.183594 169.734375 173.398438 170.074219 172.582031 170.347656 C 171.765625 170.625 170.933594 170.832031 170.082031 170.972656 C 169.234375 171.113281 168.378906 171.179688 167.519531 171.179688 C 166.597656 171.179688 165.714844 171.355469 164.863281 171.710938 C 164.015625 172.0625 163.265625 172.5625 162.617188 173.214844 C 161.300781 174.53125 160.8125 176.128906 160.652344 180.472656 L 140.214844 180.472656 C 139.832031 180.472656 139.460938 180.546875 139.109375 180.695312 C 138.753906 180.839844 138.441406 181.050781 138.167969 181.320312 C 137.898438 181.589844 137.691406 181.902344 137.542969 182.257812 C 137.398438 182.613281 137.324219 182.980469 137.324219 183.363281 L 137.324219 230.273438 L 130.273438 230.273438 C 129.886719 230.273438 129.519531 230.347656 129.164062 230.496094 C 128.8125 230.640625 128.5 230.851562 128.226562 231.121094 C 127.957031 231.390625 127.75 231.703125 127.601562 232.058594 C 127.453125 232.414062 127.382812 232.78125 127.382812 233.164062 C 127.382812 233.546875 127.457031 233.917969 127.601562 234.269531 C 127.75 234.625 127.957031 234.9375 128.226562 235.207031 C 128.5 235.480469 128.8125 235.6875 129.164062 235.835938 C 129.519531 235.980469 129.886719 236.054688 130.273438 236.054688 L 256.691406 236.054688 C 257.074219 236.054688 257.445312 235.980469 257.796875 235.835938 C 258.152344 235.6875 258.464844 235.480469 258.734375 235.207031 C 259.007812 234.9375 259.214844 234.625 259.363281 234.269531 C 259.507812 233.917969 259.582031 233.546875 259.582031 233.164062 C 259.582031 232.78125 259.507812 232.414062 259.363281 232.058594 C 259.214844 231.703125 259.007812 231.390625 258.734375 231.121094 C 258.464844 230.851562 258.152344 230.640625 257.796875 230.496094 C 257.445312 230.347656 257.074219 230.273438 256.691406 230.273438 Z M 264.785156 49.566406 C 265.515625 50.273438 266.082031 51.09375 266.480469 52.027344 C 266.882812 52.964844 267.085938 53.9375 267.097656 54.957031 C 267.085938 56.917969 266.960938 58.871094 266.714844 60.820312 C 266.46875 62.769531 266.105469 64.691406 265.625 66.597656 C 265.148438 68.5 264.554688 70.367188 263.847656 72.199219 C 263.140625 74.03125 262.328125 75.8125 261.40625 77.542969 C 260.484375 79.277344 259.460938 80.949219 258.335938 82.554688 C 257.210938 84.164062 255.992188 85.699219 254.683594 87.160156 C 253.371094 88.621094 251.976562 90 250.5 91.289062 C 249.023438 92.582031 247.472656 93.78125 245.847656 94.882812 C 250.625 79.390625 253.035156 63.539062 253.085938 47.324219 L 259.398438 47.324219 C 260.410156 47.320312 261.382812 47.511719 262.316406 47.902344 C 263.253906 48.289062 264.074219 48.847656 264.785156 49.566406 Z M 228.300781 82.28125 C 231.960938 70.464844 233.433594 58.382812 232.71875 46.03125 C 232.675781 45.652344 232.707031 45.277344 232.8125 44.910156 C 232.917969 44.542969 233.089844 44.210938 233.328125 43.910156 C 233.566406 43.609375 233.855469 43.367188 234.1875 43.183594 C 234.523438 43 234.878906 42.882812 235.261719 42.839844 C 235.640625 42.792969 236.015625 42.820312 236.386719 42.921875 C 236.757812 43.027344 237.09375 43.199219 237.394531 43.4375 C 237.695312 43.675781 237.9375 43.964844 238.117188 44.304688 C 238.300781 44.640625 238.414062 45 238.449219 45.382812 C 238.875 51.894531 238.699219 58.390625 237.921875 64.867188 C 237.144531 71.347656 235.777344 77.699219 233.828125 83.925781 C 233.738281 84.222656 233.605469 84.5 233.425781 84.757812 C 233.246094 85.015625 233.03125 85.234375 232.78125 85.421875 C 232.53125 85.609375 232.261719 85.753906 231.964844 85.851562 C 231.667969 85.953125 231.363281 86.003906 231.050781 86.003906 C 230.777344 86 230.507812 85.960938 230.242188 85.890625 C 229.878906 85.773438 229.546875 85.597656 229.253906 85.351562 C 228.957031 85.109375 228.71875 84.816406 228.539062 84.480469 C 228.359375 84.144531 228.246094 83.785156 228.207031 83.40625 C 228.164062 83.023438 228.195312 82.652344 228.300781 82.28125 Z M 228.164062 89.335938 C 228.542969 89.335938 228.914062 89.414062 229.265625 89.5625 C 229.617188 89.710938 229.925781 89.921875 230.195312 90.195312 C 230.464844 90.46875 230.671875 90.78125 230.816406 91.132812 C 230.960938 91.488281 231.03125 91.859375 231.027344 92.238281 C 231.027344 92.621094 230.953125 92.992188 230.804688 93.34375 C 230.65625 93.695312 230.445312 94.007812 230.175781 94.277344 C 229.902344 94.546875 229.589844 94.753906 229.234375 94.898438 C 228.882812 95.042969 228.515625 95.117188 228.132812 95.113281 C 227.75 95.113281 227.382812 95.039062 227.027344 94.890625 C 226.675781 94.746094 226.363281 94.535156 226.09375 94.265625 C 225.824219 93.996094 225.613281 93.683594 225.46875 93.328125 C 225.320312 92.976562 225.25 92.605469 225.25 92.226562 C 225.25 91.835938 225.324219 91.464844 225.472656 91.109375 C 225.621094 90.75 225.835938 90.4375 226.113281 90.164062 C 226.386719 89.894531 226.707031 89.683594 227.066406 89.542969 C 227.425781 89.398438 227.796875 89.328125 228.183594 89.335938 Z M 119.890625 54.957031 C 119.890625 54.457031 119.941406 53.960938 120.039062 53.472656 C 120.140625 52.980469 120.285156 52.503906 120.476562 52.042969 C 120.667969 51.582031 120.902344 51.144531 121.179688 50.730469 C 121.457031 50.3125 121.769531 49.929688 122.125 49.574219 C 122.476562 49.222656 122.859375 48.90625 123.273438 48.625 C 123.691406 48.347656 124.128906 48.113281 124.589844 47.917969 C 125.050781 47.726562 125.523438 47.578125 126.015625 47.480469 C 126.503906 47.378906 126.996094 47.328125 127.496094 47.324219 L 134.433594 47.324219 C 134.515625 63.6875 136.992188 79.679688 141.855469 95.300781 C 140.183594 94.207031 138.585938 93.015625 137.0625 91.726562 C 135.542969 90.433594 134.101562 89.054688 132.75 87.589844 C 131.394531 86.121094 130.136719 84.574219 128.976562 82.953125 C 127.8125 81.332031 126.753906 79.640625 125.800781 77.890625 C 124.84375 76.136719 124.003906 74.332031 123.269531 72.472656 C 122.539062 70.617188 121.921875 68.722656 121.425781 66.789062 C 120.925781 64.855469 120.550781 62.898438 120.292969 60.917969 C 120.035156 58.9375 119.902344 56.953125 119.890625 54.957031 Z M 173.296875 63.808594 L 168.835938 60.574219 C 168.324219 60.21875 167.757812 60.042969 167.136719 60.042969 C 166.515625 60.042969 165.949219 60.21875 165.4375 60.574219 L 161 63.808594 L 161 36.597656 L 173.296875 36.597656 Z M 143.011719 230.273438 L 143.011719 186.207031 L 243.859375 186.207031 L 243.859375 230.273438 Z M 143.011719 230.273438 " fill-opacity="1" fill-rule="nonzero"/></g><path fill="#0000ff" d="M 162.894531 196.9375 L 225.085938 196.9375 C 225.46875 196.9375 225.839844 197.007812 226.191406 197.15625 C 226.546875 197.300781 226.859375 197.511719 227.128906 197.78125 C 227.402344 198.054688 227.609375 198.367188 227.757812 198.71875 C 227.902344 199.074219 227.976562 199.441406 227.976562 199.824219 L 227.976562 216.679688 C 227.976562 217.0625 227.902344 217.433594 227.757812 217.785156 C 227.609375 218.140625 227.402344 218.453125 227.128906 218.722656 C 226.859375 218.996094 226.546875 219.203125 226.191406 219.351562 C 225.839844 219.496094 225.46875 219.570312 225.085938 219.570312 L 162.894531 219.570312 C 162.511719 219.570312 162.140625 219.496094 161.789062 219.351562 C 161.433594 219.203125 161.121094 218.996094 160.851562 218.722656 C 160.578125 218.453125 160.371094 218.140625 160.222656 217.785156 C 160.078125 217.433594 160.003906 217.0625 160.003906 216.679688 L 160.003906 199.824219 C 160.003906 199.441406 160.078125 199.074219 160.222656 198.71875 C 160.371094 198.367188 160.578125 198.054688 160.851562 197.78125 C 161.121094 197.511719 161.433594 197.300781 161.789062 197.15625 C 162.140625 197.007812 162.511719 196.9375 162.894531 196.9375 Z M 162.894531 196.9375 " fill-opacity="1" fill-rule="nonzero"/><g clip-path="url(#4a33887183)"><path fill="#fff7f7" d="M 184.394531 153.269531 L 184.394531 124.179688 C 184.394531 120.308594 187.53125 117.171875 191.402344 117.171875 L 215.289062 117.171875 C 219.160156 117.171875 222.300781 114.035156 222.300781 110.164062 L 222.300781 81.648438 C 222.300781 77.777344 219.160156 74.640625 215.289062 74.640625 C 215.289062 74.640625 212.636719 74.640625 209.097656 74.640625 C 205.558594 74.640625 201.132812 74.640625 197.59375 74.640625 C 193.816406 74.019531 188.503906 74.019531 186.734375 72.25 C 179.652344 61.628906 193.816406 35.074219 171.839844 35.988281 C 168.671875 35.972656 164.707031 35.96875 161.539062 35.96875 C 158.371094 35.96875 155.992188 35.96875 155.992188 35.96875 C 152.125 35.96875 148.984375 39.105469 148.984375 42.976562 L 148.984375 67.632812 C 148.984375 69.566406 148.199219 71.320312 146.933594 72.589844 C 145.664062 73.855469 143.914062 74.644531 141.976562 74.679688 C 130.082031 79.332031 101.757812 68.710938 104.929688 89.101562 C 104.929688 93.265625 104.929688 98.546875 104.929688 102.769531 C 104.929688 106.996094 104.929688 110.164062 104.929688 110.164062 C 104.929688 114.035156 108.066406 117.171875 111.9375 117.171875 C 111.9375 117.171875 125.289062 117.171875 134.1875 117.171875 C 136.414062 117.171875 138.359375 117.171875 139.753906 117.171875 C 142.472656 116.511719 146.015625 118.28125 147.785156 120.050781 C 154.867188 134.214844 140.703125 166.082031 166.691406 160.277344 C 168.472656 160.277344 170.253906 160.277344 171.839844 160.277344 C 175.007812 160.277344 177.382812 160.277344 177.382812 160.277344 C 181.253906 160.277344 184.394531 157.140625 184.394531 153.269531 Z M 184.394531 153.269531 " fill-opacity="1" fill-rule="nonzero"/></g><path fill="#183e9f" d="M 215.816406 104.179688 C 216.386719 105.917969 216.109375 107.863281 215.007812 109.335938 C 213.867188 110.855469 211.996094 111.5625 210.203125 111.957031 C 208.042969 112.429688 205.800781 112.578125 203.605469 112.742188 C 201.140625 112.929688 198.675781 113.035156 196.207031 113.054688 C 193.394531 113.078125 190.585938 112.988281 187.78125 112.800781 C 186.664062 112.722656 186.671875 114.460938 187.78125 114.539062 C 193.125 114.898438 198.492188 114.878906 203.832031 114.464844 C 206.222656 114.277344 208.679688 114.117188 211.015625 113.550781 C 213.058594 113.058594 215.046875 112.117188 216.351562 110.417969 C 217.796875 108.539062 218.230469 105.972656 217.492188 103.71875 C 217.148438 102.660156 215.46875 103.113281 215.816406 104.179688 Z M 215.816406 104.179688 " fill-opacity="1" fill-rule="nonzero"/><path fill="#183e9f" d="M 205.390625 108.148438 C 200.875 108.8125 196.296875 108.984375 191.742188 108.707031 C 190.628906 108.640625 190.632812 110.378906 191.742188 110.445312 C 196.460938 110.734375 201.179688 110.511719 205.851562 109.824219 C 206.316406 109.753906 206.574219 109.167969 206.460938 108.753906 C 206.320312 108.257812 205.859375 108.078125 205.390625 108.148438 Z M 205.390625 108.148438 " fill-opacity="1" fill-rule="nonzero"/><path fill="#183e9f" d="M 152.691406 57.207031 C 151.8125 62.203125 153.15625 67.328125 152.09375 72.292969 C 151.667969 74.285156 150.875 76.253906 149.398438 77.703125 C 147.796875 79.273438 145.578125 79.917969 143.410156 80.222656 C 140.472656 80.636719 137.441406 80.652344 134.484375 80.53125 C 133.363281 80.484375 133.367188 82.222656 134.484375 82.265625 C 137.308594 82.382812 140.164062 82.34375 142.976562 82.015625 C 145.378906 81.734375 147.808594 81.167969 149.765625 79.667969 C 153.539062 76.777344 154.292969 71.679688 154.226562 67.230469 C 154.179688 64.046875 153.8125 60.824219 154.367188 57.667969 C 154.5625 56.574219 152.886719 56.105469 152.691406 57.207031 Z M 152.691406 57.207031 " fill-opacity="1" fill-rule="nonzero"/><path fill="#183e9f" d="M 155.375 76.804688 C 155.984375 80.230469 152.898438 82.898438 149.949219 83.816406 C 146.203125 84.980469 142.226562 84.363281 138.375 84.585938 C 137.265625 84.652344 137.257812 86.390625 138.375 86.324219 C 142.683594 86.074219 147.214844 86.816406 151.328125 85.167969 C 154.882812 83.742188 157.765625 80.367188 157.050781 76.34375 C 156.855469 75.246094 155.179688 75.710938 155.375 76.804688 Z M 155.375 76.804688 " fill-opacity="1" fill-rule="nonzero"/><g fill="#183e9f" fill-opacity="1"><g transform="translate(76.653368, 339.152734)"><g><path d="M 8.734375 -14.21875 L 8.734375 -3.71875 C 8.734375 -2.539062 8.367188 -1.601562 7.640625 -0.90625 C 6.921875 -0.207031 5.972656 0.140625 4.796875 0.140625 C 3.597656 0.140625 2.640625 -0.210938 1.921875 -0.921875 C 1.203125 -1.640625 0.84375 -2.617188 0.84375 -3.859375 L 2.6875 -3.859375 C 2.707031 -3.160156 2.890625 -2.59375 3.234375 -2.15625 C 3.578125 -1.726562 4.097656 -1.515625 4.796875 -1.515625 C 5.484375 -1.515625 5.992188 -1.71875 6.328125 -2.125 C 6.671875 -2.539062 6.84375 -3.070312 6.84375 -3.71875 L 6.84375 -14.21875 Z M 8.734375 -14.21875 "/></g></g></g><g fill="#183e9f" fill-opacity="1"><g transform="translate(87.462977, 339.152734)"><g><path d="M 3.390625 -14.21875 L 3.390625 -5.21875 C 3.390625 -3.957031 3.695312 -3.019531 4.3125 -2.40625 C 4.925781 -1.789062 5.785156 -1.484375 6.890625 -1.484375 C 7.972656 -1.484375 8.820312 -1.789062 9.4375 -2.40625 C 10.0625 -3.019531 10.375 -3.957031 10.375 -5.21875 L 10.375 -14.21875 L 12.234375 -14.21875 L 12.234375 -5.234375 C 12.234375 -4.054688 11.992188 -3.0625 11.515625 -2.25 C 11.046875 -1.445312 10.40625 -0.847656 9.59375 -0.453125 C 8.78125 -0.0546875 7.875 0.140625 6.875 0.140625 C 5.863281 0.140625 4.953125 -0.0546875 4.140625 -0.453125 C 3.335938 -0.847656 2.703125 -1.445312 2.234375 -2.25 C 1.765625 -3.0625 1.53125 -4.054688 1.53125 -5.234375 L 1.53125 -14.21875 Z M 3.390625 -14.21875 "/></g></g></g><g fill="#183e9f" fill-opacity="1"><g transform="translate(101.229929, 339.152734)"><g><path d="M 9.96875 -3.15625 L 3.765625 -3.15625 L 2.625 0 L 0.671875 0 L 5.8125 -14.125 L 7.953125 -14.125 L 13.078125 0 L 11.109375 0 Z M 9.4375 -4.671875 L 6.875 -11.84375 L 4.296875 -4.671875 Z M 9.4375 -4.671875 "/></g></g></g><g fill="#183e9f" fill-opacity="1"><g transform="translate(114.976482, 339.152734)"><g><path d="M 9.046875 0 L 5.671875 -5.8125 L 3.421875 -5.8125 L 3.421875 0 L 1.5625 0 L 1.5625 -14.21875 L 6.15625 -14.21875 C 7.226562 -14.21875 8.132812 -14.03125 8.875 -13.65625 C 9.613281 -13.289062 10.164062 -12.796875 10.53125 -12.171875 C 10.90625 -11.546875 11.09375 -10.832031 11.09375 -10.03125 C 11.09375 -9.050781 10.8125 -8.1875 10.25 -7.4375 C 9.6875 -6.695312 8.835938 -6.203125 7.703125 -5.953125 L 11.28125 0 Z M 3.421875 -7.296875 L 6.15625 -7.296875 C 7.164062 -7.296875 7.921875 -7.539062 8.421875 -8.03125 C 8.921875 -8.53125 9.171875 -9.195312 9.171875 -10.03125 C 9.171875 -10.875 8.921875 -11.523438 8.421875 -11.984375 C 7.929688 -12.453125 7.175781 -12.6875 6.15625 -12.6875 L 3.421875 -12.6875 Z M 3.421875 -7.296875 "/></g></g></g><g fill="#183e9f" fill-opacity="1"><g transform="translate(127.376939, 339.152734)"><g><path d="M 9.96875 -3.15625 L 3.765625 -3.15625 L 2.625 0 L 0.671875 0 L 5.8125 -14.125 L 7.953125 -14.125 L 13.078125 0 L 11.109375 0 Z M 9.4375 -4.671875 L 6.875 -11.84375 L 4.296875 -4.671875 Z M 9.4375 -4.671875 "/></g></g></g><g fill="#183e9f" fill-opacity="1"><g transform="translate(141.123491, 339.152734)"><g/></g></g><g fill="#183e9f" fill-opacity="1"><g transform="translate(146.569088, 339.152734)"><g><path d="M 9.96875 -3.15625 L 3.765625 -3.15625 L 2.625 0 L 0.671875 0 L 5.8125 -14.125 L 7.953125 -14.125 L 13.078125 0 L 11.109375 0 Z M 9.4375 -4.671875 L 6.875 -11.84375 L 4.296875 -4.671875 Z M 9.4375 -4.671875 "/></g></g></g><g fill="#183e9f" fill-opacity="1"><g transform="translate(160.31564, 339.152734)"><g><path d="M 12.75 0 L 10.890625 0 L 3.421875 -11.3125 L 3.421875 0 L 1.5625 0 L 1.5625 -14.234375 L 3.421875 -14.234375 L 10.890625 -2.9375 L 10.890625 -14.234375 L 12.75 -14.234375 Z M 12.75 0 "/></g></g></g><g fill="#183e9f" fill-opacity="1"><g transform="translate(174.653664, 339.152734)"><g><path d="M 10.3125 -14.21875 L 10.3125 -12.703125 L 6.4375 -12.703125 L 6.4375 0 L 4.59375 0 L 4.59375 -12.703125 L 0.6875 -12.703125 L 0.6875 -14.21875 Z M 10.3125 -14.21875 "/></g></g></g><g fill="#183e9f" fill-opacity="1"><g transform="translate(185.687626, 339.152734)"><g><path d="M 9.046875 0 L 5.671875 -5.8125 L 3.421875 -5.8125 L 3.421875 0 L 1.5625 0 L 1.5625 -14.21875 L 6.15625 -14.21875 C 7.226562 -14.21875 8.132812 -14.03125 8.875 -13.65625 C 9.613281 -13.289062 10.164062 -12.796875 10.53125 -12.171875 C 10.90625 -11.546875 11.09375 -10.832031 11.09375 -10.03125 C 11.09375 -9.050781 10.8125 -8.1875 10.25 -7.4375 C 9.6875 -6.695312 8.835938 -6.203125 7.703125 -5.953125 L 11.28125 0 Z M 3.421875 -7.296875 L 6.15625 -7.296875 C 7.164062 -7.296875 7.921875 -7.539062 8.421875 -8.03125 C 8.921875 -8.53125 9.171875 -9.195312 9.171875 -10.03125 C 9.171875 -10.875 8.921875 -11.523438 8.421875 -11.984375 C 7.929688 -12.453125 7.175781 -12.6875 6.15625 -12.6875 L 3.421875 -12.6875 Z M 3.421875 -7.296875 "/></g></g></g><g fill="#183e9f" fill-opacity="1"><g transform="translate(198.088083, 339.152734)"><g><path d="M 3.421875 -12.703125 L 3.421875 -7.953125 L 8.609375 -7.953125 L 8.609375 -6.421875 L 3.421875 -6.421875 L 3.421875 -1.53125 L 9.21875 -1.53125 L 9.21875 0 L 1.5625 0 L 1.5625 -14.234375 L 9.21875 -14.234375 L 9.21875 -12.703125 Z M 3.421875 -12.703125 "/></g></g></g><g fill="#183e9f" fill-opacity="1"><g transform="translate(208.550973, 339.152734)"><g><path d="M 9.96875 -3.15625 L 3.765625 -3.15625 L 2.625 0 L 0.671875 0 L 5.8125 -14.125 L 7.953125 -14.125 L 13.078125 0 L 11.109375 0 Z M 9.4375 -4.671875 L 6.875 -11.84375 L 4.296875 -4.671875 Z M 9.4375 -4.671875 "/></g></g></g><g fill="#183e9f" fill-opacity="1"><g transform="translate(222.297525, 339.152734)"><g><path d="M 12.75 0 L 10.890625 0 L 3.421875 -11.3125 L 3.421875 0 L 1.5625 0 L 1.5625 -14.234375 L 3.421875 -14.234375 L 10.890625 -2.9375 L 10.890625 -14.234375 L 12.75 -14.234375 Z M 12.75 0 "/></g></g></g><g fill="#183e9f" fill-opacity="1"><g transform="translate(236.635549, 339.152734)"><g/></g></g><g fill="#183e9f" fill-opacity="1"><g transform="translate(242.081146, 339.152734)"><g><path d="M 9.96875 -3.15625 L 3.765625 -3.15625 L 2.625 0 L 0.671875 0 L 5.8125 -14.125 L 7.953125 -14.125 L 13.078125 0 L 11.109375 0 Z M 9.4375 -4.671875 L 6.875 -11.84375 L 4.296875 -4.671875 Z M 9.4375 -4.671875 "/></g></g></g><g fill="#183e9f" fill-opacity="1"><g transform="translate(255.827698, 339.152734)"><g><path d="M 12.75 0 L 10.890625 0 L 3.421875 -11.3125 L 3.421875 0 L 1.5625 0 L 1.5625 -14.234375 L 3.421875 -14.234375 L 10.890625 -2.9375 L 10.890625 -14.234375 L 12.75 -14.234375 Z M 12.75 0 "/></g></g></g><g fill="#183e9f" fill-opacity="1"><g transform="translate(270.165722, 339.152734)"><g><path d="M 6 -14.21875 C 7.539062 -14.21875 8.878906 -13.925781 10.015625 -13.34375 C 11.148438 -12.769531 12.019531 -11.941406 12.625 -10.859375 C 13.238281 -9.785156 13.546875 -8.523438 13.546875 -7.078125 C 13.546875 -5.617188 13.238281 -4.351562 12.625 -3.28125 C 12.019531 -2.21875 11.148438 -1.40625 10.015625 -0.84375 C 8.878906 -0.28125 7.539062 0 6 0 L 1.5625 0 L 1.5625 -14.21875 Z M 6 -1.53125 C 7.832031 -1.53125 9.226562 -2.015625 10.1875 -2.984375 C 11.15625 -3.953125 11.640625 -5.316406 11.640625 -7.078125 C 11.640625 -8.835938 11.15625 -10.210938 10.1875 -11.203125 C 9.21875 -12.203125 7.820312 -12.703125 6 -12.703125 L 3.421875 -12.703125 L 3.421875 -1.53125 Z M 6 -1.53125 "/></g></g></g><g fill="#183e9f" fill-opacity="1"><g transform="translate(284.58533, 339.152734)"><g><path d="M 9.96875 -3.15625 L 3.765625 -3.15625 L 2.625 0 L 0.671875 0 L 5.8125 -14.125 L 7.953125 -14.125 L 13.078125 0 L 11.109375 0 Z M 9.4375 -4.671875 L 6.875 -11.84375 L 4.296875 -4.671875 Z M 9.4375 -4.671875 "/></g></g></g></svg>