<?xml version="1.0" standalone="no"?>
<!DOCTYPE svg PUBLIC "-//W3C//DTD SVG 20010904//EN"
 "http://www.w3.org/TR/2001/REC-SVG-20010904/DTD/svg10.dtd">
<svg version="1.0" xmlns="http://www.w3.org/2000/svg"
 width="121.000000pt" height="124.000000pt" viewBox="0 0 121.000000 124.000000"
 preserveAspectRatio="xMidYMid meet">

<g transform="translate(0.000000,124.000000) scale(0.100000,-0.100000)"
fill="#000000" stroke="none">
<path d="M491 1070 c-117 -25 -232 -106 -301 -212 -83 -127 -94 -303 -28 -440
61 -125 149 -205 276 -247 117 -40 281 -21 386 42 21 13 62 47 91 76 280 277
90 762 -308 786 -40 2 -92 0 -116 -5z m134 -184 c36 -15 65 -59 65 -99 0 -25
-40 -86 -82 -125 l-25 -22 -51 54 c-45 47 -52 61 -52 94 0 57 46 109 98 111 7
1 28 -5 47 -13z m-182 -180 c18 -7 50 -33 72 -56 l40 -42 -53 -49 c-48 -44
-58 -49 -98 -49 -62 0 -104 40 -104 98 0 57 46 109 98 111 7 1 27 -5 45 -13z
m362 0 c102 -43 70 -196 -42 -196 -38 0 -50 6 -93 46 -28 26 -50 52 -50 58 0
27 103 106 138 106 7 0 28 -6 47 -14z m-178 -168 c53 -56 66 -83 59 -123 -16
-83 -117 -115 -177 -56 -34 34 -39 91 -12 131 20 31 75 90 83 90 3 0 24 -19
47 -42z"/>
</g>
</svg>
