<svg xmlns="http://www.w3.org/2000/svg" xmlns:xlink="http://www.w3.org/1999/xlink" width="202" zoomAndPan="magnify" viewBox="0 0 151.5 30.000001" height="40" preserveAspectRatio="xMidYMid meet" version="1.0"><defs><g/><clipPath id="6e3ed61ec5"><path d="M 6.726562 0.726562 L 28.234375 0.726562 L 28.234375 28.296875 L 6.726562 28.296875 Z M 6.726562 0.726562 " clip-rule="nonzero"/></clipPath><clipPath id="8fe419826b"><path d="M 5.066406 1.289062 L 21.296875 1.289062 L 21.296875 18.890625 L 5.066406 18.890625 Z M 5.066406 1.289062 " clip-rule="nonzero"/></clipPath></defs><g fill="#5271ff" fill-opacity="1"><g transform="translate(35.324475, 19.316831)"><g><path d="M 15.203125 -0.015625 L 12.59375 -0.015625 L 12.59375 -9.609375 C 12.59375 -9.796875 12.625 -10.257812 12.6875 -11 C 12.644531 -10.90625 12.59375 -10.765625 12.53125 -10.578125 C 12.476562 -10.390625 12.425781 -10.21875 12.375 -10.0625 C 12.320312 -9.90625 12.269531 -9.753906 12.21875 -9.609375 L 8.765625 0 L 7.328125 0 L 3.765625 -9.609375 C 3.710938 -9.753906 3.660156 -9.90625 3.609375 -10.0625 C 3.566406 -10.21875 3.515625 -10.390625 3.453125 -10.578125 C 3.390625 -10.765625 3.34375 -10.90625 3.3125 -11 C 3.3125 -10.882812 3.328125 -10.664062 3.359375 -10.34375 C 3.390625 -10.019531 3.40625 -9.773438 3.40625 -9.609375 L 3.40625 -0.015625 L 1.296875 -0.015625 L 1.296875 -12.984375 C 1.296875 -12.992188 1.269531 -13.085938 1.21875 -13.265625 C 1.175781 -13.453125 1.132812 -13.640625 1.09375 -13.828125 C 1.050781 -14.023438 1.03125 -14.132812 1.03125 -14.15625 L 4.734375 -14.15625 L 7.75 -6.03125 C 7.894531 -5.644531 8.082031 -4.863281 8.3125 -3.6875 C 8.34375 -3.78125 8.410156 -4.109375 8.515625 -4.671875 C 8.628906 -5.234375 8.738281 -5.660156 8.84375 -5.953125 L 11.796875 -14.15625 L 15.203125 -14.15625 Z M 15.203125 -0.015625 "/></g></g></g><g fill="#5271ff" fill-opacity="1"><g transform="translate(51.537438, 19.316831)"><g><path d="M 9.90625 0 L 1.296875 0 L 1.296875 -12.984375 L 1 -14.15625 L 9.90625 -14.15625 L 9.90625 -12.25 L 3.953125 -12.25 L 3.953125 -8.234375 L 8.515625 -8.234375 L 8.515625 -6.328125 L 3.953125 -6.328125 L 3.953125 -1.921875 L 9.90625 -1.921875 Z M 9.90625 0 "/></g></g></g><g fill="#5271ff" fill-opacity="1"><g transform="translate(62.159057, 19.316831)"><g><path d="M 13.15625 -7.0625 C 13.15625 -4.894531 12.488281 -3.15625 11.15625 -1.84375 C 9.9375 -0.613281 8.328125 0 6.328125 0 L 1.296875 0 L 1.296875 -12.984375 C 1.296875 -12.992188 1.242188 -13.179688 1.140625 -13.546875 C 1.046875 -13.921875 0.992188 -14.125 0.984375 -14.15625 L 6.34375 -14.15625 C 8.46875 -14.15625 10.132812 -13.503906 11.34375 -12.203125 C 12.550781 -10.910156 13.15625 -9.195312 13.15625 -7.0625 Z M 10.296875 -6.984375 C 10.296875 -7.910156 10.164062 -8.753906 9.90625 -9.515625 C 9.644531 -10.273438 9.195312 -10.921875 8.5625 -11.453125 C 7.925781 -11.984375 7.128906 -12.25 6.171875 -12.25 L 3.96875 -12.25 L 3.96875 -1.921875 L 6.203125 -1.921875 C 6.910156 -1.921875 7.535156 -2.054688 8.078125 -2.328125 C 8.617188 -2.609375 9.046875 -2.988281 9.359375 -3.46875 C 9.671875 -3.957031 9.90625 -4.492188 10.0625 -5.078125 C 10.21875 -5.660156 10.296875 -6.296875 10.296875 -6.984375 Z M 10.296875 -6.984375 "/></g></g></g><g fill="#5271ff" fill-opacity="1"><g transform="translate(75.682751, 19.316831)"><g><path d="M 3.953125 0 L 1.28125 0 L 1.28125 -12.984375 C 1.28125 -12.992188 1.253906 -13.085938 1.203125 -13.265625 C 1.160156 -13.453125 1.113281 -13.640625 1.0625 -13.828125 C 1.019531 -14.023438 1 -14.132812 1 -14.15625 L 3.953125 -14.15625 Z M 3.953125 0 "/></g></g></g><g fill="#5271ff" fill-opacity="1"><g transform="translate(80.8678, 19.316831)"><g><path d="M 22.90625 3.15625 C 21.625 3.59375 20.71875 3.867188 20.1875 3.984375 C 19.664062 4.109375 18.96875 4.171875 18.09375 4.171875 C 17.53125 4.171875 16.921875 4.097656 16.265625 3.953125 C 15.609375 3.816406 14.882812 3.597656 14.09375 3.296875 C 13.300781 3.003906 12.644531 2.75 12.125 2.53125 C 11.613281 2.3125 10.90625 1.992188 10 1.578125 C 9.09375 1.171875 8.523438 0.914062 8.296875 0.8125 C 7.910156 0.644531 7.085938 0.425781 5.828125 0.15625 C 3.953125 -0.238281 2.570312 -1.082031 1.6875 -2.375 C 0.8125 -3.664062 0.375 -5.222656 0.375 -7.046875 C 0.375 -8.003906 0.515625 -8.921875 0.796875 -9.796875 C 1.078125 -10.671875 1.488281 -11.453125 2.03125 -12.140625 C 2.570312 -12.828125 3.28125 -13.375 4.15625 -13.78125 C 5.03125 -14.1875 6.023438 -14.390625 7.140625 -14.390625 C 8.242188 -14.390625 9.234375 -14.1875 10.109375 -13.78125 C 10.992188 -13.375 11.707031 -12.828125 12.25 -12.140625 C 12.789062 -11.453125 13.195312 -10.671875 13.46875 -9.796875 C 13.75 -8.921875 13.890625 -8.003906 13.890625 -7.046875 C 13.890625 -5.691406 13.601562 -4.429688 13.03125 -3.265625 C 12.46875 -2.097656 11.582031 -1.179688 10.375 -0.515625 L 10.59375 -0.40625 C 11.644531 0.09375 12.507812 0.5 13.1875 0.8125 C 13.875 1.125 14.796875 1.457031 15.953125 1.8125 C 17.117188 2.175781 18.09375 2.359375 18.875 2.359375 C 19.75 2.359375 20.941406 2.132812 22.453125 1.6875 Z M 11.046875 -7.046875 C 11.046875 -7.992188 10.921875 -8.863281 10.671875 -9.65625 C 10.429688 -10.457031 10.003906 -11.132812 9.390625 -11.6875 C 8.785156 -12.25 8.035156 -12.53125 7.140625 -12.53125 C 6.242188 -12.53125 5.488281 -12.25 4.875 -11.6875 C 4.269531 -11.132812 3.84375 -10.457031 3.59375 -9.65625 C 3.351562 -8.851562 3.234375 -7.972656 3.234375 -7.015625 C 3.234375 -6.078125 3.351562 -5.21875 3.59375 -4.4375 C 3.84375 -3.65625 4.269531 -2.992188 4.875 -2.453125 C 5.488281 -1.910156 6.242188 -1.640625 7.140625 -1.640625 C 8.453125 -1.640625 9.429688 -2.164062 10.078125 -3.21875 C 10.722656 -4.269531 11.046875 -5.546875 11.046875 -7.046875 Z M 11.046875 -7.046875 "/></g></g></g><g fill="#5271ff" fill-opacity="1"><g transform="translate(95.126691, 19.316831)"><g><path d="M 12.453125 -5.375 C 12.453125 -3.457031 11.945312 -2.046875 10.9375 -1.140625 C 9.925781 -0.234375 8.578125 0.21875 6.890625 0.21875 C 5.097656 0.21875 3.71875 -0.257812 2.75 -1.21875 C 1.789062 -2.1875 1.3125 -3.570312 1.3125 -5.375 L 1.3125 -13 L 1 -14.15625 L 4.046875 -14.15625 L 4.046875 -4.734375 C 4.046875 -3.796875 4.328125 -3.039062 4.890625 -2.46875 C 5.460938 -1.90625 6.21875 -1.625 7.15625 -1.625 C 8.113281 -1.625 8.867188 -1.898438 9.421875 -2.453125 C 9.984375 -3.003906 10.265625 -3.765625 10.265625 -4.734375 L 10.265625 -14.15625 L 12.453125 -14.15625 Z M 12.453125 -5.375 "/></g></g></g><g fill="#5271ff" fill-opacity="1"><g transform="translate(108.805168, 19.316831)"><g><path d="M 9.90625 0 L 1.296875 0 L 1.296875 -12.984375 L 1 -14.15625 L 9.90625 -14.15625 L 9.90625 -12.25 L 3.953125 -12.25 L 3.953125 -8.234375 L 8.515625 -8.234375 L 8.515625 -6.328125 L 3.953125 -6.328125 L 3.953125 -1.921875 L 9.90625 -1.921875 Z M 9.90625 0 "/></g></g></g><g fill="#5271ff" fill-opacity="1"><g transform="translate(119.426787, 19.316831)"><g><path d="M 12.453125 -5.375 C 12.453125 -3.457031 11.945312 -2.046875 10.9375 -1.140625 C 9.925781 -0.234375 8.578125 0.21875 6.890625 0.21875 C 5.097656 0.21875 3.71875 -0.257812 2.75 -1.21875 C 1.789062 -2.1875 1.3125 -3.570312 1.3125 -5.375 L 1.3125 -13 L 1 -14.15625 L 4.046875 -14.15625 L 4.046875 -4.734375 C 4.046875 -3.796875 4.328125 -3.039062 4.890625 -2.46875 C 5.460938 -1.90625 6.21875 -1.625 7.15625 -1.625 C 8.113281 -1.625 8.867188 -1.898438 9.421875 -2.453125 C 9.984375 -3.003906 10.265625 -3.765625 10.265625 -4.734375 L 10.265625 -14.15625 L 12.453125 -14.15625 Z M 12.453125 -5.375 "/></g></g></g><g fill="#5271ff" fill-opacity="1"><g transform="translate(133.105264, 19.316831)"><g><path d="M 9.90625 0 L 1.296875 0 L 1.296875 -12.984375 L 1 -14.15625 L 9.90625 -14.15625 L 9.90625 -12.25 L 3.953125 -12.25 L 3.953125 -8.234375 L 8.515625 -8.234375 L 8.515625 -6.328125 L 3.953125 -6.328125 L 3.953125 -1.921875 L 9.90625 -1.921875 Z M 9.90625 0 "/></g></g></g><g fill="#183e9f" fill-opacity="1"><g transform="translate(36.776088, 25.848662)"><g><path d="M 2.4375 -3.40625 L 2.4375 -1.078125 C 2.4375 -0.722656 2.332031 -0.445312 2.125 -0.25 C 1.925781 -0.0625 1.65625 0.03125 1.3125 0.03125 C 0.957031 0.03125 0.671875 -0.0664062 0.453125 -0.265625 C 0.234375 -0.472656 0.125 -0.765625 0.125 -1.140625 L 0.953125 -1.140625 C 0.953125 -0.992188 0.976562 -0.882812 1.03125 -0.8125 C 1.09375 -0.738281 1.175781 -0.703125 1.28125 -0.703125 C 1.382812 -0.703125 1.460938 -0.734375 1.515625 -0.796875 C 1.578125 -0.867188 1.609375 -0.960938 1.609375 -1.078125 L 1.609375 -3.40625 Z M 2.4375 -3.40625 "/></g></g></g><g fill="#183e9f" fill-opacity="1"><g transform="translate(39.572876, 25.848662)"><g><path d="M 1.109375 -3.40625 L 1.109375 -1.359375 C 1.109375 -1.160156 1.160156 -1.003906 1.265625 -0.890625 C 1.367188 -0.785156 1.515625 -0.734375 1.703125 -0.734375 C 1.898438 -0.734375 2.050781 -0.785156 2.15625 -0.890625 C 2.257812 -1.003906 2.3125 -1.160156 2.3125 -1.359375 L 2.3125 -3.40625 L 3.140625 -3.40625 L 3.140625 -1.375 C 3.140625 -1.070312 3.070312 -0.8125 2.9375 -0.59375 C 2.8125 -0.382812 2.640625 -0.226562 2.421875 -0.125 C 2.203125 -0.0195312 1.957031 0.03125 1.6875 0.03125 C 1.414062 0.03125 1.175781 -0.0195312 0.96875 -0.125 C 0.757812 -0.226562 0.59375 -0.382812 0.46875 -0.59375 C 0.34375 -0.8125 0.28125 -1.070312 0.28125 -1.375 L 0.28125 -3.40625 Z M 1.109375 -3.40625 "/></g></g></g><g fill="#183e9f" fill-opacity="1"><g transform="translate(42.98418, 25.848662)"><g><path d="M 2.421875 -0.59375 L 1.140625 -0.59375 L 0.9375 0 L 0.078125 0 L 1.3125 -3.40625 L 2.265625 -3.40625 L 3.5 0 L 2.625 0 Z M 2.203125 -1.234375 L 1.78125 -2.484375 L 1.359375 -1.234375 Z M 2.203125 -1.234375 "/></g></g></g><g fill="#183e9f" fill-opacity="1"><g transform="translate(46.550323, 25.848662)"><g><path d="M 2.03125 0 L 1.328125 -1.28125 L 1.125 -1.28125 L 1.125 0 L 0.296875 0 L 0.296875 -3.40625 L 1.6875 -3.40625 C 1.957031 -3.40625 2.1875 -3.359375 2.375 -3.265625 C 2.5625 -3.171875 2.703125 -3.039062 2.796875 -2.875 C 2.890625 -2.707031 2.9375 -2.523438 2.9375 -2.328125 C 2.9375 -2.097656 2.875 -1.894531 2.75 -1.71875 C 2.625 -1.539062 2.4375 -1.414062 2.1875 -1.34375 L 2.96875 0 Z M 1.125 -1.875 L 1.640625 -1.875 C 1.796875 -1.875 1.910156 -1.910156 1.984375 -1.984375 C 2.054688 -2.054688 2.09375 -2.160156 2.09375 -2.296875 C 2.09375 -2.421875 2.054688 -2.519531 1.984375 -2.59375 C 1.910156 -2.675781 1.796875 -2.71875 1.640625 -2.71875 L 1.125 -2.71875 Z M 1.125 -1.875 "/></g></g></g><g fill="#183e9f" fill-opacity="1"><g transform="translate(49.705175, 25.848662)"><g><path d="M 2.421875 -0.59375 L 1.140625 -0.59375 L 0.9375 0 L 0.078125 0 L 1.3125 -3.40625 L 2.265625 -3.40625 L 3.5 0 L 2.625 0 Z M 2.203125 -1.234375 L 1.78125 -2.484375 L 1.359375 -1.234375 Z M 2.203125 -1.234375 "/></g></g></g><g fill="#183e9f" fill-opacity="1"><g transform="translate(53.271318, 25.848662)"><g/></g></g><g fill="#183e9f" fill-opacity="1"><g transform="translate(54.297131, 25.848662)"><g><path d="M 2.421875 -0.59375 L 1.140625 -0.59375 L 0.9375 0 L 0.078125 0 L 1.3125 -3.40625 L 2.265625 -3.40625 L 3.5 0 L 2.625 0 Z M 2.203125 -1.234375 L 1.78125 -2.484375 L 1.359375 -1.234375 Z M 2.203125 -1.234375 "/></g></g></g><g fill="#183e9f" fill-opacity="1"><g transform="translate(57.863275, 25.848662)"><g><path d="M 3.34375 0 L 2.515625 0 L 1.125 -2.09375 L 1.125 0 L 0.296875 0 L 0.296875 -3.40625 L 1.125 -3.40625 L 2.515625 -1.296875 L 2.515625 -3.40625 L 3.34375 -3.40625 Z M 3.34375 0 "/></g></g></g><g fill="#183e9f" fill-opacity="1"><g transform="translate(61.502001, 25.848662)"><g><path d="M 2.75 -3.40625 L 2.75 -2.734375 L 1.84375 -2.734375 L 1.84375 0 L 1.015625 0 L 1.015625 -2.734375 L 0.109375 -2.734375 L 0.109375 -3.40625 Z M 2.75 -3.40625 "/></g></g></g><g fill="#183e9f" fill-opacity="1"><g transform="translate(64.361695, 25.848662)"><g><path d="M 2.03125 0 L 1.328125 -1.28125 L 1.125 -1.28125 L 1.125 0 L 0.296875 0 L 0.296875 -3.40625 L 1.6875 -3.40625 C 1.957031 -3.40625 2.1875 -3.359375 2.375 -3.265625 C 2.5625 -3.171875 2.703125 -3.039062 2.796875 -2.875 C 2.890625 -2.707031 2.9375 -2.523438 2.9375 -2.328125 C 2.9375 -2.097656 2.875 -1.894531 2.75 -1.71875 C 2.625 -1.539062 2.4375 -1.414062 2.1875 -1.34375 L 2.96875 0 Z M 1.125 -1.875 L 1.640625 -1.875 C 1.796875 -1.875 1.910156 -1.910156 1.984375 -1.984375 C 2.054688 -2.054688 2.09375 -2.160156 2.09375 -2.296875 C 2.09375 -2.421875 2.054688 -2.519531 1.984375 -2.59375 C 1.910156 -2.675781 1.796875 -2.71875 1.640625 -2.71875 L 1.125 -2.71875 Z M 1.125 -1.875 "/></g></g></g><g fill="#183e9f" fill-opacity="1"><g transform="translate(67.516547, 25.848662)"><g><path d="M 1.125 -2.734375 L 1.125 -2.046875 L 2.234375 -2.046875 L 2.234375 -1.40625 L 1.125 -1.40625 L 1.125 -0.65625 L 2.390625 -0.65625 L 2.390625 0 L 0.296875 0 L 0.296875 -3.40625 L 2.390625 -3.40625 L 2.390625 -2.734375 Z M 1.125 -2.734375 "/></g></g></g><g fill="#183e9f" fill-opacity="1"><g transform="translate(70.134303, 25.848662)"><g><path d="M 2.421875 -0.59375 L 1.140625 -0.59375 L 0.9375 0 L 0.078125 0 L 1.3125 -3.40625 L 2.265625 -3.40625 L 3.5 0 L 2.625 0 Z M 2.203125 -1.234375 L 1.78125 -2.484375 L 1.359375 -1.234375 Z M 2.203125 -1.234375 "/></g></g></g><g fill="#183e9f" fill-opacity="1"><g transform="translate(73.700447, 25.848662)"><g><path d="M 3.34375 0 L 2.515625 0 L 1.125 -2.09375 L 1.125 0 L 0.296875 0 L 0.296875 -3.40625 L 1.125 -3.40625 L 2.515625 -1.296875 L 2.515625 -3.40625 L 3.34375 -3.40625 Z M 3.34375 0 "/></g></g></g><g fill="#183e9f" fill-opacity="1"><g transform="translate(77.339174, 25.848662)"><g/></g></g><g fill="#183e9f" fill-opacity="1"><g transform="translate(78.364986, 25.848662)"><g><path d="M 2.421875 -0.59375 L 1.140625 -0.59375 L 0.9375 0 L 0.078125 0 L 1.3125 -3.40625 L 2.265625 -3.40625 L 3.5 0 L 2.625 0 Z M 2.203125 -1.234375 L 1.78125 -2.484375 L 1.359375 -1.234375 Z M 2.203125 -1.234375 "/></g></g></g><g fill="#183e9f" fill-opacity="1"><g transform="translate(81.93113, 25.848662)"><g><path d="M 3.34375 0 L 2.515625 0 L 1.125 -2.09375 L 1.125 0 L 0.296875 0 L 0.296875 -3.40625 L 1.125 -3.40625 L 2.515625 -1.296875 L 2.515625 -3.40625 L 3.34375 -3.40625 Z M 3.34375 0 "/></g></g></g><g fill="#183e9f" fill-opacity="1"><g transform="translate(85.569857, 25.848662)"><g><path d="M 1.578125 -3.40625 C 1.929688 -3.40625 2.242188 -3.332031 2.515625 -3.1875 C 2.785156 -3.039062 2.992188 -2.835938 3.140625 -2.578125 C 3.285156 -2.328125 3.359375 -2.035156 3.359375 -1.703125 C 3.359375 -1.367188 3.285156 -1.070312 3.140625 -0.8125 C 2.992188 -0.550781 2.785156 -0.347656 2.515625 -0.203125 C 2.242188 -0.0664062 1.929688 0 1.578125 0 L 0.296875 0 L 0.296875 -3.40625 Z M 1.515625 -0.71875 C 1.828125 -0.71875 2.070312 -0.800781 2.25 -0.96875 C 2.425781 -1.144531 2.515625 -1.390625 2.515625 -1.703125 C 2.515625 -2.015625 2.425781 -2.253906 2.25 -2.421875 C 2.070312 -2.597656 1.828125 -2.6875 1.515625 -2.6875 L 1.125 -2.6875 L 1.125 -0.71875 Z M 1.515625 -0.71875 "/></g></g></g><g fill="#183e9f" fill-opacity="1"><g transform="translate(89.087615, 25.848662)"><g><path d="M 2.421875 -0.59375 L 1.140625 -0.59375 L 0.9375 0 L 0.078125 0 L 1.3125 -3.40625 L 2.265625 -3.40625 L 3.5 0 L 2.625 0 Z M 2.203125 -1.234375 L 1.78125 -2.484375 L 1.359375 -1.234375 Z M 2.203125 -1.234375 "/></g></g></g><g clip-path="url(#6e3ed61ec5)"><path fill="#5271ff" d="M 25.914062 27.527344 L 24.984375 27.527344 L 24.984375 21.21875 C 24.984375 21.113281 24.945312 21.019531 24.871094 20.945312 C 24.792969 20.871094 24.703125 20.832031 24.597656 20.832031 L 21.886719 20.832031 C 21.867188 20.246094 21.804688 20.035156 21.625 19.855469 C 21.441406 19.675781 21.222656 19.582031 20.964844 19.582031 C 20.488281 19.582031 20.0625 19.4375 19.683594 19.148438 C 19.304688 18.859375 19.054688 18.484375 18.929688 18.027344 C 18.800781 17.566406 18.828125 17.117188 19.007812 16.675781 C 19.1875 16.234375 19.480469 15.890625 19.890625 15.648438 C 19.890625 15.648438 20.058594 15.566406 20.109375 15.535156 C 21.734375 14.6875 23.105469 12.859375 24.046875 10.472656 C 24.648438 10.171875 25.203125 9.792969 25.699219 9.339844 C 26.199219 8.882812 26.625 8.371094 26.984375 7.796875 C 27.339844 7.222656 27.609375 6.613281 27.796875 5.964844 C 27.984375 5.316406 28.078125 4.652344 28.082031 3.976562 C 28.082031 3.738281 28.039062 3.507812 27.945312 3.289062 C 27.855469 3.066406 27.726562 2.871094 27.554688 2.703125 C 27.386719 2.535156 27.191406 2.40625 26.972656 2.3125 C 26.75 2.222656 26.519531 2.175781 26.28125 2.175781 L 25.433594 2.175781 L 25.433594 1.125 C 25.433594 1.015625 25.394531 0.925781 25.320312 0.847656 C 25.246094 0.773438 25.152344 0.734375 25.046875 0.734375 L 9.871094 0.734375 C 9.765625 0.734375 9.671875 0.773438 9.597656 0.847656 C 9.523438 0.925781 9.484375 1.015625 9.484375 1.125 L 9.484375 2.175781 L 8.550781 2.175781 C 8.3125 2.175781 8.085938 2.222656 7.863281 2.3125 C 7.644531 2.40625 7.449219 2.535156 7.28125 2.703125 C 7.113281 2.875 6.980469 3.066406 6.890625 3.289062 C 6.800781 3.507812 6.753906 3.738281 6.753906 3.976562 C 6.757812 4.65625 6.851562 5.320312 7.039062 5.972656 C 7.226562 6.625 7.5 7.238281 7.859375 7.816406 C 8.21875 8.390625 8.648438 8.90625 9.152344 9.363281 C 9.65625 9.820312 10.210938 10.199219 10.820312 10.5 C 10.835938 10.507812 10.851562 10.511719 10.867188 10.519531 C 11.800781 12.882812 13.171875 14.691406 14.777344 15.535156 L 14.988281 15.644531 C 15.40625 15.882812 15.707031 16.222656 15.890625 16.664062 C 16.074219 17.109375 16.105469 17.558594 15.980469 18.023438 C 15.855469 18.484375 15.605469 18.863281 15.226562 19.152344 C 14.84375 19.445312 14.417969 19.589844 13.9375 19.589844 C 13.679688 19.589844 13.460938 19.679688 13.277344 19.863281 C 13.101562 20.039062 13.035156 20.253906 13.015625 20.839844 L 10.269531 20.839844 C 10.164062 20.839844 10.070312 20.875 9.996094 20.953125 C 9.917969 21.027344 9.882812 21.117188 9.882812 21.226562 L 9.882812 27.527344 L 8.933594 27.527344 C 8.828125 27.527344 8.734375 27.566406 8.660156 27.640625 C 8.582031 27.71875 8.546875 27.808594 8.546875 27.914062 C 8.546875 28.023438 8.582031 28.113281 8.660156 28.191406 C 8.734375 28.265625 8.828125 28.304688 8.933594 28.304688 L 25.914062 28.304688 C 26.023438 28.304688 26.113281 28.265625 26.191406 28.191406 C 26.265625 28.113281 26.304688 28.023438 26.304688 27.914062 C 26.304688 27.808594 26.265625 27.71875 26.191406 27.640625 C 26.113281 27.566406 26.023438 27.527344 25.914062 27.527344 Z M 27.003906 3.253906 C 27.207031 3.453125 27.3125 3.691406 27.3125 3.976562 C 27.308594 5.050781 27.054688 6.0625 26.550781 7.011719 C 26.042969 7.960938 25.347656 8.738281 24.460938 9.339844 C 25.101562 7.257812 25.425781 5.128906 25.429688 2.953125 L 26.277344 2.953125 C 26.5625 2.949219 26.804688 3.050781 27.003906 3.253906 Z M 22.101562 7.648438 C 22.59375 6.0625 22.792969 4.4375 22.695312 2.777344 C 22.683594 2.671875 22.710938 2.578125 22.777344 2.492188 C 22.84375 2.410156 22.929688 2.363281 23.035156 2.351562 C 23.144531 2.335938 23.238281 2.363281 23.324219 2.429688 C 23.40625 2.496094 23.453125 2.585938 23.464844 2.691406 C 23.582031 4.457031 23.375 6.183594 22.84375 7.867188 C 22.789062 8.054688 22.664062 8.148438 22.472656 8.148438 C 22.433594 8.148438 22.398438 8.140625 22.363281 8.132812 C 22.261719 8.101562 22.183594 8.039062 22.132812 7.945312 C 22.082031 7.847656 22.074219 7.75 22.101562 7.648438 Z M 22.082031 8.59375 C 22.191406 8.597656 22.28125 8.636719 22.355469 8.710938 C 22.433594 8.789062 22.46875 8.878906 22.46875 8.984375 C 22.46875 9.09375 22.429688 9.183594 22.355469 9.257812 C 22.277344 9.335938 22.1875 9.371094 22.078125 9.371094 C 21.972656 9.371094 21.882812 9.332031 21.804688 9.257812 C 21.730469 9.183594 21.691406 9.089844 21.691406 8.984375 C 21.691406 8.875 21.730469 8.78125 21.808594 8.707031 C 21.886719 8.632812 21.976562 8.59375 22.085938 8.59375 Z M 7.539062 3.976562 C 7.539062 3.84375 7.566406 3.710938 7.617188 3.585938 C 7.671875 3.460938 7.742188 3.351562 7.839844 3.253906 C 7.933594 3.160156 8.046875 3.085938 8.171875 3.03125 C 8.296875 2.980469 8.425781 2.953125 8.5625 2.953125 L 9.492188 2.953125 C 9.503906 5.148438 9.835938 7.296875 10.488281 9.398438 C 9.574219 8.796875 8.855469 8.019531 8.332031 7.058594 C 7.808594 6.097656 7.546875 5.070312 7.539062 3.976562 Z M 14.714844 5.167969 L 14.113281 4.730469 C 13.960938 4.625 13.808594 4.625 13.65625 4.730469 L 13.0625 5.167969 L 13.0625 1.511719 L 14.714844 1.511719 Z M 10.644531 27.527344 L 10.644531 21.609375 L 24.191406 21.609375 L 24.191406 27.527344 Z M 10.644531 27.527344 " fill-opacity="1" fill-rule="nonzero"/></g><path fill="#5271ff" d="M 13.316406 23.050781 L 21.671875 23.050781 C 21.777344 23.050781 21.867188 23.085938 21.945312 23.164062 C 22.019531 23.238281 22.058594 23.332031 22.058594 23.4375 L 22.058594 25.703125 C 22.058594 25.808594 22.019531 25.898438 21.945312 25.976562 C 21.867188 26.050781 21.777344 26.089844 21.671875 26.089844 L 13.316406 26.089844 C 13.207031 26.089844 13.117188 26.050781 13.042969 25.976562 C 12.964844 25.898438 12.929688 25.808594 12.929688 25.703125 L 12.929688 23.4375 C 12.929688 23.332031 12.964844 23.238281 13.042969 23.164062 C 13.117188 23.085938 13.207031 23.050781 13.316406 23.050781 Z M 13.316406 23.050781 " fill-opacity="1" fill-rule="nonzero"/><g clip-path="url(#8fe419826b)"><path fill="#fff7f7" d="M 16.203125 17.183594 L 16.203125 13.277344 C 16.203125 12.757812 16.625 12.335938 17.144531 12.335938 L 20.355469 12.335938 C 20.875 12.335938 21.296875 11.914062 21.296875 11.394531 L 21.296875 7.5625 C 21.296875 7.042969 20.875 6.621094 20.355469 6.621094 C 20.355469 6.621094 19.996094 6.621094 19.523438 6.621094 C 19.046875 6.621094 18.453125 6.621094 17.976562 6.621094 C 17.46875 6.539062 16.757812 6.539062 16.519531 6.300781 C 15.566406 4.875 17.46875 1.308594 14.515625 1.429688 C 14.089844 1.425781 13.558594 1.425781 13.132812 1.425781 C 12.707031 1.425781 12.390625 1.425781 12.390625 1.425781 C 11.867188 1.425781 11.449219 1.847656 11.449219 2.367188 L 11.449219 5.679688 C 11.449219 5.941406 11.34375 6.175781 11.171875 6.347656 C 11 6.515625 10.765625 6.621094 10.507812 6.625 C 8.90625 7.253906 5.101562 5.824219 5.527344 8.5625 C 5.527344 9.125 5.527344 9.832031 5.527344 10.402344 C 5.527344 10.96875 5.527344 11.394531 5.527344 11.394531 C 5.527344 11.914062 5.949219 12.335938 6.46875 12.335938 C 6.46875 12.335938 8.265625 12.335938 9.460938 12.335938 C 9.757812 12.335938 10.019531 12.335938 10.207031 12.335938 C 10.574219 12.246094 11.046875 12.484375 11.285156 12.722656 C 12.238281 14.625 10.335938 18.90625 13.824219 18.125 C 14.066406 18.125 14.304688 18.125 14.515625 18.125 C 14.941406 18.125 15.261719 18.125 15.261719 18.125 C 15.78125 18.125 16.203125 17.703125 16.203125 17.183594 Z M 16.203125 17.183594 " fill-opacity="1" fill-rule="nonzero"/></g><path fill="#ffffff" d="M 20.425781 10.589844 C 20.5 10.824219 20.464844 11.085938 20.316406 11.28125 C 20.164062 11.488281 19.910156 11.582031 19.671875 11.632812 C 19.378906 11.699219 19.078125 11.71875 18.785156 11.742188 C 18.453125 11.765625 18.121094 11.777344 17.789062 11.78125 C 17.414062 11.785156 17.035156 11.773438 16.660156 11.746094 C 16.507812 11.738281 16.507812 11.972656 16.660156 11.980469 C 17.375 12.03125 18.097656 12.027344 18.816406 11.972656 C 19.136719 11.945312 19.464844 11.925781 19.78125 11.847656 C 20.054688 11.78125 20.320312 11.65625 20.496094 11.429688 C 20.691406 11.175781 20.75 10.832031 20.648438 10.527344 C 20.605469 10.386719 20.378906 10.445312 20.425781 10.589844 Z M 20.425781 10.589844 " fill-opacity="1" fill-rule="nonzero"/><path fill="#ffffff" d="M 19.023438 11.121094 C 18.417969 11.210938 17.804688 11.234375 17.191406 11.199219 C 17.042969 11.1875 17.042969 11.421875 17.191406 11.429688 C 17.824219 11.46875 18.457031 11.441406 19.085938 11.347656 C 19.148438 11.339844 19.183594 11.257812 19.167969 11.203125 C 19.148438 11.136719 19.085938 11.113281 19.023438 11.121094 Z M 19.023438 11.121094 " fill-opacity="1" fill-rule="nonzero"/><path fill="#ffffff" d="M 11.945312 4.28125 C 11.828125 4.953125 12.007812 5.640625 11.863281 6.304688 C 11.808594 6.574219 11.699219 6.839844 11.503906 7.03125 C 11.289062 7.246094 10.988281 7.332031 10.699219 7.371094 C 10.304688 7.425781 9.898438 7.429688 9.5 7.414062 C 9.347656 7.40625 9.347656 7.640625 9.5 7.644531 C 9.878906 7.660156 10.261719 7.65625 10.640625 7.613281 C 10.960938 7.574219 11.289062 7.5 11.550781 7.296875 C 12.058594 6.910156 12.160156 6.222656 12.152344 5.625 C 12.144531 5.199219 12.097656 4.765625 12.171875 4.34375 C 12.195312 4.195312 11.972656 4.132812 11.945312 4.28125 Z M 11.945312 4.28125 " fill-opacity="1" fill-rule="nonzero"/><path fill="#ffffff" d="M 12.304688 6.914062 C 12.386719 7.371094 11.972656 7.730469 11.578125 7.855469 C 11.074219 8.011719 10.539062 7.925781 10.023438 7.957031 C 9.871094 7.964844 9.871094 8.199219 10.023438 8.191406 C 10.601562 8.15625 11.210938 8.257812 11.761719 8.035156 C 12.238281 7.84375 12.625 7.390625 12.53125 6.851562 C 12.503906 6.703125 12.28125 6.765625 12.304688 6.914062 Z M 12.304688 6.914062 " fill-opacity="1" fill-rule="nonzero"/></svg>